<svg width="210" height="36" viewBox="0 0 210 36" fill="none" xmlns="http://www.w3.org/2000/svg">
<path d="M0.9 36V6.5C0.9 4.7 1.53333 3.16666 2.8 1.9C4.06667 0.633332 5.6 -1.43051e-06 7.4 -1.43051e-06H30.35C32.15 -1.43051e-06 33.6833 0.633332 34.95 1.9C36.25 3.16666 36.9 4.7 36.9 6.5V36H31.45V23.4H6.3V36H0.9ZM6.3 18H31.45V7.25C31.45 6.51667 31.3167 6.03333 31.05 5.8C30.8167 5.53333 30.3333 5.4 29.6 5.4H8.15C7.41667 5.4 6.91667 5.53333 6.65 5.8C6.41667 6.03333 6.3 6.51667 6.3 7.25V18ZM44.7469 36V-1.43051e-06H72.7469C74.5469 -1.43051e-06 76.0802 0.633332 77.3469 1.9C78.6135 3.16666 79.2469 4.7 79.2469 6.5V13.85C79.2469 14.2833 79.1969 14.7167 79.0969 15.15C79.0302 15.5833 78.8969 15.9833 78.6969 16.35C79.3635 17.2833 79.8635 18.15 80.1969 18.95C80.5635 19.75 80.7469 20.5833 80.7469 21.45V29.5C80.7469 31.3 80.0969 32.8333 78.7969 34.1C77.5302 35.3667 75.9969 36 74.1969 36H44.7469ZM51.9969 30.6H73.4469C74.1802 30.6 74.6635 30.4833 74.8969 30.25C75.1635 29.9833 75.2969 29.4833 75.2969 28.75V22.2C75.2969 21.4667 75.1635 20.9833 74.8969 20.75C74.6635 20.4833 74.1802 20.35 73.4469 20.35H51.9969C51.2635 20.35 50.7635 20.4833 50.4969 20.75C50.2635 20.9833 50.1469 21.4667 50.1469 22.2V28.75C50.1469 29.4833 50.2635 29.9833 50.4969 30.25C50.7635 30.4833 51.2635 30.6 51.9969 30.6ZM51.9969 14.95H71.9969C72.7302 14.95 73.2135 14.8333 73.4469 14.6C73.6802 14.3333 73.7969 13.8333 73.7969 13.1V7.25C73.7969 6.51667 73.6802 6.03333 73.4469 5.8C73.2135 5.53333 72.7302 5.4 71.9969 5.4H51.9969C51.2635 5.4 50.7635 5.53333 50.4969 5.8C50.2635 6.03333 50.1469 6.51667 50.1469 7.25V13.1C50.1469 13.8333 50.2635 14.3333 50.4969 14.6C50.7635 14.8333 51.2635 14.95 51.9969 14.95ZM94.5984 36C92.7984 36 91.2651 35.3667 89.9984 34.1C88.7318 32.8333 88.0984 31.3 88.0984 29.5V6.5C88.0984 4.7 88.7318 3.16666 89.9984 1.9C91.2651 0.633332 92.7984 -1.43051e-06 94.5984 -1.43051e-06H117.598C119.365 -1.43051e-06 120.882 0.633332 122.148 1.9C123.448 3.16666 124.098 4.7 124.098 6.5V29.5C124.098 31.3 123.448 32.8333 122.148 34.1C120.882 35.3667 119.365 36 117.598 36H94.5984ZM95.3484 30.6H116.798C117.532 30.6 118.015 30.4833 118.248 30.25C118.515 29.9833 118.648 29.4833 118.648 28.75V7.25C118.648 6.51667 118.515 6.03333 118.248 5.8C118.015 5.53333 117.532 5.4 116.798 5.4H95.3484C94.6151 5.4 94.1151 5.53333 93.8484 5.8C93.6151 6.03333 93.4984 6.51667 93.4984 7.25V28.75C93.4984 29.4833 93.6151 29.9833 93.8484 30.25C94.1151 30.4833 94.6151 30.6 95.3484 30.6ZM138.005 36C136.205 36 134.671 35.3667 133.405 34.1C132.138 32.8333 131.505 31.3 131.505 29.5V-1.43051e-06H136.905V28.75C136.905 29.4833 137.021 29.9833 137.255 30.25C137.521 30.4833 138.021 30.6 138.755 30.6H160.205C160.971 30.6 161.471 30.4833 161.705 30.25C161.938 29.9833 162.055 29.4833 162.055 28.75V-1.43051e-06H167.505V29.5C167.505 31.3 166.855 32.8333 165.555 34.1C164.288 35.3667 162.771 36 161.005 36H138.005ZM188.511 36V5.4H173.211V-1.43051e-06H209.211V5.4H193.961V36H188.511Z" fill="black"/>
</svg>
