<svg width="248" height="55" viewBox="0 0 248 55" fill="none" xmlns="http://www.w3.org/2000/svg">
<path d="M3.13281 11.4219H8.29688V13H1.15625V1.625H3.13281V11.4219ZM11.6484 13H9.75V4.54688H11.6484V13ZM9.63281 2.35156C9.63281 2.0599 9.72396 1.81771 9.90625 1.625C10.0938 1.43229 10.3594 1.33594 10.7031 1.33594C11.0469 1.33594 11.3125 1.43229 11.5 1.625C11.6875 1.81771 11.7812 2.0599 11.7812 2.35156C11.7812 2.63802 11.6875 2.8776 11.5 3.07031C11.3125 3.25781 11.0469 3.35156 10.7031 3.35156C10.3594 3.35156 10.0938 3.25781 9.90625 3.07031C9.72396 2.8776 9.63281 2.63802 9.63281 2.35156ZM18.4609 10.7031C18.4609 10.3646 18.3203 10.1068 18.0391 9.92969C17.763 9.7526 17.3021 9.59635 16.6562 9.46094C16.0104 9.32552 15.4714 9.15365 15.0391 8.94531C14.0911 8.48698 13.6172 7.82292 13.6172 6.95312C13.6172 6.22396 13.9245 5.61458 14.5391 5.125C15.1536 4.63542 15.9349 4.39062 16.8828 4.39062C17.8932 4.39062 18.7083 4.64062 19.3281 5.14062C19.9531 5.64062 20.2656 6.28906 20.2656 7.08594H18.3672C18.3672 6.72135 18.2318 6.41927 17.9609 6.17969C17.6901 5.9349 17.3307 5.8125 16.8828 5.8125C16.4661 5.8125 16.125 5.90885 15.8594 6.10156C15.599 6.29427 15.4688 6.55208 15.4688 6.875C15.4688 7.16667 15.5911 7.39323 15.8359 7.55469C16.0807 7.71615 16.5755 7.88021 17.3203 8.04688C18.0651 8.20833 18.6484 8.40365 19.0703 8.63281C19.4974 8.85677 19.8125 9.1276 20.0156 9.44531C20.224 9.76302 20.3281 10.1484 20.3281 10.6016C20.3281 11.362 20.013 11.9792 19.3828 12.4531C18.7526 12.9219 17.9271 13.1562 16.9062 13.1562C16.2135 13.1562 15.5964 13.0312 15.0547 12.7812C14.513 12.5312 14.0911 12.1875 13.7891 11.75C13.487 11.3125 13.3359 10.8411 13.3359 10.3359H15.1797C15.2057 10.7839 15.375 11.1302 15.6875 11.375C16 11.6146 16.4141 11.7344 16.9297 11.7344C17.4297 11.7344 17.8099 11.6406 18.0703 11.4531C18.3307 11.2604 18.4609 11.0104 18.4609 10.7031ZM24.3672 2.49219V4.54688H25.8594V5.95312H24.3672V10.6719C24.3672 10.9948 24.4297 11.2292 24.5547 11.375C24.6849 11.5156 24.9141 11.5859 25.2422 11.5859C25.4609 11.5859 25.6823 11.5599 25.9062 11.5078V12.9766C25.474 13.0964 25.0573 13.1562 24.6562 13.1562C23.1979 13.1562 22.4688 12.3516 22.4688 10.7422V5.95312H21.0781V4.54688H22.4688V2.49219H24.3672ZM30.9453 8.69531C30.9453 7.86719 31.1094 7.1224 31.4375 6.46094C31.7656 5.79427 32.2266 5.28385 32.8203 4.92969C33.4141 4.57031 34.0964 4.39062 34.8672 4.39062C36.0078 4.39062 36.9323 4.75781 37.6406 5.49219C38.3542 6.22656 38.7396 7.20052 38.7969 8.41406L38.8047 8.85938C38.8047 9.69271 38.6432 10.4375 38.3203 11.0938C38.0026 11.75 37.5443 12.2578 36.9453 12.6172C36.3516 12.9766 35.6641 13.1562 34.8828 13.1562C33.6901 13.1562 32.7344 12.7604 32.0156 11.9688C31.3021 11.1719 30.9453 10.112 30.9453 8.78906V8.69531ZM32.8438 8.85938C32.8438 9.72917 33.0234 10.4115 33.3828 10.9062C33.7422 11.3958 34.2422 11.6406 34.8828 11.6406C35.5234 11.6406 36.0208 11.3906 36.375 10.8906C36.7344 10.3906 36.9141 9.65885 36.9141 8.69531C36.9141 7.84115 36.7292 7.16406 36.3594 6.66406C35.9948 6.16406 35.4974 5.91406 34.8672 5.91406C34.2474 5.91406 33.7552 6.16146 33.3906 6.65625C33.026 7.14583 32.8438 7.88021 32.8438 8.85938ZM41.0781 13V5.95312H39.7891V4.54688H41.0781V3.77344C41.0781 2.83594 41.3385 2.11198 41.8594 1.60156C42.3802 1.09115 43.1094 0.835938 44.0469 0.835938C44.3802 0.835938 44.7344 0.882812 45.1094 0.976562L45.0625 2.46094C44.8542 2.41927 44.612 2.39844 44.3359 2.39844C43.4297 2.39844 42.9766 2.86458 42.9766 3.79688V4.54688H44.6953V5.95312H42.9766V13H41.0781ZM58.9688 11.5234C58.5573 12.0599 57.987 12.4661 57.2578 12.7422C56.5286 13.0182 55.7005 13.1562 54.7734 13.1562C53.8203 13.1562 52.9766 12.9401 52.2422 12.5078C51.5078 12.0755 50.9401 11.4583 50.5391 10.6562C50.1432 9.84896 49.9375 8.90885 49.9219 7.83594V6.94531C49.9219 5.22656 50.3333 3.88542 51.1562 2.92188C51.9792 1.95312 53.1276 1.46875 54.6016 1.46875C55.8672 1.46875 56.8724 1.78125 57.6172 2.40625C58.362 3.03125 58.8099 3.93229 58.9609 5.10938H57.0234C56.8047 3.73958 56.0104 3.05469 54.6406 3.05469C53.7552 3.05469 53.0807 3.375 52.6172 4.01562C52.1589 4.65104 51.9219 5.58594 51.9062 6.82031V7.69531C51.9062 8.92448 52.1641 9.88021 52.6797 10.5625C53.2005 11.2396 53.9219 11.5781 54.8438 11.5781C55.8542 11.5781 56.5729 11.349 57 10.8906V8.66406H54.6562V7.16406H58.9688V11.5234ZM62.9766 13H61.0781V1H62.9766V13ZM64.6953 8.69531C64.6953 7.86719 64.8594 7.1224 65.1875 6.46094C65.5156 5.79427 65.9766 5.28385 66.5703 4.92969C67.1641 4.57031 67.8464 4.39062 68.6172 4.39062C69.7578 4.39062 70.6823 4.75781 71.3906 5.49219C72.1042 6.22656 72.4896 7.20052 72.5469 8.41406L72.5547 8.85938C72.5547 9.69271 72.3932 10.4375 72.0703 11.0938C71.7526 11.75 71.2943 12.2578 70.6953 12.6172C70.1016 12.9766 69.4141 13.1562 68.6328 13.1562C67.4401 13.1562 66.4844 12.7604 65.7656 11.9688C65.0521 11.1719 64.6953 10.112 64.6953 8.78906V8.69531ZM66.5938 8.85938C66.5938 9.72917 66.7734 10.4115 67.1328 10.9062C67.4922 11.3958 67.9922 11.6406 68.6328 11.6406C69.2734 11.6406 69.7708 11.3906 70.125 10.8906C70.4844 10.3906 70.6641 9.65885 70.6641 8.69531C70.6641 7.84115 70.4792 7.16406 70.1094 6.66406C69.7448 6.16406 69.2474 5.91406 68.6172 5.91406C67.9974 5.91406 67.5052 6.16146 67.1406 6.65625C66.776 7.14583 66.5938 7.88021 66.5938 8.85938ZM81.5781 8.85938C81.5781 10.1719 81.2839 11.2161 80.6953 11.9922C80.112 12.7682 79.3073 13.1562 78.2812 13.1562C77.2917 13.1562 76.5208 12.7995 75.9688 12.0859L75.875 13H74.1562V1H76.0547V5.35938C76.6016 4.71354 77.3385 4.39062 78.2656 4.39062C79.2969 4.39062 80.1068 4.77344 80.6953 5.53906C81.2839 6.30469 81.5781 7.375 81.5781 8.75V8.85938ZM79.6797 8.69531C79.6797 7.77865 79.5182 7.09115 79.1953 6.63281C78.8724 6.17448 78.4036 5.94531 77.7891 5.94531C76.9661 5.94531 76.388 6.30469 76.0547 7.02344V10.5078C76.3932 11.2422 76.9766 11.6094 77.8047 11.6094C78.3984 11.6094 78.8568 11.388 79.1797 10.9453C79.5026 10.5026 79.6693 9.83333 79.6797 8.9375V8.69531ZM88.2266 13C88.1432 12.8385 88.0703 12.5755 88.0078 12.2109C87.4036 12.8411 86.6641 13.1562 85.7891 13.1562C84.9401 13.1562 84.2474 12.9141 83.7109 12.4297C83.1745 11.9453 82.9062 11.3464 82.9062 10.6328C82.9062 9.73177 83.2396 9.04167 83.9062 8.5625C84.5781 8.07812 85.5365 7.83594 86.7812 7.83594H87.9453V7.28125C87.9453 6.84375 87.8229 6.49479 87.5781 6.23438C87.3333 5.96875 86.9609 5.83594 86.4609 5.83594C86.0286 5.83594 85.6745 5.94531 85.3984 6.16406C85.1224 6.3776 84.9844 6.65104 84.9844 6.98438H83.0859C83.0859 6.52083 83.2396 6.08854 83.5469 5.6875C83.8542 5.28125 84.2708 4.96354 84.7969 4.73438C85.3281 4.50521 85.9193 4.39062 86.5703 4.39062C87.5599 4.39062 88.349 4.64062 88.9375 5.14062C89.526 5.63542 89.8281 6.33333 89.8438 7.23438V11.0469C89.8438 11.8073 89.9505 12.4141 90.1641 12.8672V13H88.2266ZM86.1406 11.6328C86.5156 11.6328 86.8672 11.5417 87.1953 11.3594C87.5286 11.1771 87.7786 10.9323 87.9453 10.625V9.03125H86.9219C86.2188 9.03125 85.6901 9.15365 85.3359 9.39844C84.9818 9.64323 84.8047 9.98958 84.8047 10.4375C84.8047 10.8021 84.9245 11.0938 85.1641 11.3125C85.4089 11.526 85.7344 11.6328 86.1406 11.6328ZM93.8516 13H91.9531V1H93.8516V13ZM106.742 7.92188H102.07V11.4219H107.531V13H100.094V1.625H107.477V3.21875H102.07V6.35938H106.742V7.92188ZM110.742 4.54688L110.797 5.42969C111.391 4.73698 112.203 4.39062 113.234 4.39062C114.365 4.39062 115.138 4.82292 115.555 5.6875C116.169 4.82292 117.034 4.39062 118.148 4.39062C119.081 4.39062 119.773 4.64844 120.227 5.16406C120.685 5.67969 120.919 6.4401 120.93 7.44531V13H119.031V7.5C119.031 6.96354 118.914 6.57031 118.68 6.32031C118.445 6.07031 118.057 5.94531 117.516 5.94531C117.083 5.94531 116.729 6.0625 116.453 6.29688C116.182 6.52604 115.992 6.82812 115.883 7.20312L115.891 13H113.992V7.4375C113.966 6.44271 113.458 5.94531 112.469 5.94531C111.708 5.94531 111.169 6.25521 110.852 6.875V13H108.953V4.54688H110.742ZM126.602 13.1562C125.398 13.1562 124.422 12.7786 123.672 12.0234C122.927 11.263 122.555 10.2526 122.555 8.99219V8.75781C122.555 7.91406 122.716 7.16146 123.039 6.5C123.367 5.83333 123.826 5.3151 124.414 4.94531C125.003 4.57552 125.659 4.39062 126.383 4.39062C127.534 4.39062 128.422 4.75781 129.047 5.49219C129.677 6.22656 129.992 7.26562 129.992 8.60938V9.375H124.469C124.526 10.0729 124.758 10.625 125.164 11.0312C125.576 11.4375 126.091 11.6406 126.711 11.6406C127.581 11.6406 128.289 11.2891 128.836 10.5859L129.859 11.5625C129.521 12.0677 129.068 12.4609 128.5 12.7422C127.938 13.0182 127.305 13.1562 126.602 13.1562ZM126.375 5.91406C125.854 5.91406 125.432 6.09635 125.109 6.46094C124.792 6.82552 124.589 7.33333 124.5 7.98438H128.117V7.84375C128.076 7.20833 127.906 6.72917 127.609 6.40625C127.312 6.07812 126.901 5.91406 126.375 5.91406ZM135.898 6.28125C135.648 6.23958 135.391 6.21875 135.125 6.21875C134.255 6.21875 133.669 6.55208 133.367 7.21875V13H131.469V4.54688H133.281L133.328 5.49219C133.786 4.75781 134.422 4.39062 135.234 4.39062C135.505 4.39062 135.729 4.42708 135.906 4.5L135.898 6.28125ZM136.609 8.71094C136.609 7.39844 136.917 6.35156 137.531 5.57031C138.151 4.78385 138.971 4.39062 139.992 4.39062C140.956 4.39062 141.714 4.72656 142.266 5.39844L142.352 4.54688H144.062V12.7422C144.062 13.8516 143.716 14.7266 143.023 15.3672C142.336 16.0078 141.406 16.3281 140.234 16.3281C139.615 16.3281 139.008 16.1979 138.414 15.9375C137.826 15.6823 137.378 15.3464 137.07 14.9297L137.969 13.7891C138.552 14.4818 139.271 14.8281 140.125 14.8281C140.755 14.8281 141.253 14.6562 141.617 14.3125C141.982 13.974 142.164 13.474 142.164 12.8125V12.2422C141.617 12.8516 140.888 13.1562 139.977 13.1562C138.987 13.1562 138.177 12.763 137.547 11.9766C136.922 11.1901 136.609 10.1016 136.609 8.71094ZM138.5 8.875C138.5 9.72396 138.672 10.3932 139.016 10.8828C139.365 11.3672 139.846 11.6094 140.461 11.6094C141.227 11.6094 141.794 11.2812 142.164 10.625V6.90625C141.805 6.26562 141.242 5.94531 140.477 5.94531C139.852 5.94531 139.365 6.19271 139.016 6.6875C138.672 7.18229 138.5 7.91146 138.5 8.875ZM149.742 13.1562C148.539 13.1562 147.562 12.7786 146.812 12.0234C146.068 11.263 145.695 10.2526 145.695 8.99219V8.75781C145.695 7.91406 145.857 7.16146 146.18 6.5C146.508 5.83333 146.966 5.3151 147.555 4.94531C148.143 4.57552 148.799 4.39062 149.523 4.39062C150.674 4.39062 151.562 4.75781 152.188 5.49219C152.818 6.22656 153.133 7.26562 153.133 8.60938V9.375H147.609C147.667 10.0729 147.898 10.625 148.305 11.0312C148.716 11.4375 149.232 11.6406 149.852 11.6406C150.721 11.6406 151.43 11.2891 151.977 10.5859L153 11.5625C152.661 12.0677 152.208 12.4609 151.641 12.7422C151.078 13.0182 150.445 13.1562 149.742 13.1562ZM149.516 5.91406C148.995 5.91406 148.573 6.09635 148.25 6.46094C147.932 6.82552 147.729 7.33333 147.641 7.98438H151.258V7.84375C151.216 7.20833 151.047 6.72917 150.75 6.40625C150.453 6.07812 150.042 5.91406 149.516 5.91406ZM156.375 4.54688L156.43 5.52344C157.055 4.76823 157.875 4.39062 158.891 4.39062C160.651 4.39062 161.547 5.39844 161.578 7.41406V13H159.68V7.52344C159.68 6.98698 159.562 6.59115 159.328 6.33594C159.099 6.07552 158.721 5.94531 158.195 5.94531C157.43 5.94531 156.859 6.29167 156.484 6.98438V13H154.586V4.54688H156.375ZM166.992 11.6406C167.466 11.6406 167.859 11.5026 168.172 11.2266C168.484 10.9505 168.651 10.6094 168.672 10.2031H170.461C170.44 10.7292 170.276 11.2214 169.969 11.6797C169.661 12.1328 169.245 12.4922 168.719 12.7578C168.193 13.0234 167.625 13.1562 167.016 13.1562C165.833 13.1562 164.896 12.7734 164.203 12.0078C163.51 11.2422 163.164 10.1849 163.164 8.83594V8.64062C163.164 7.35417 163.508 6.32552 164.195 5.55469C164.883 4.77865 165.82 4.39062 167.008 4.39062C168.013 4.39062 168.831 4.6849 169.461 5.27344C170.096 5.85677 170.43 6.625 170.461 7.57812H168.672C168.651 7.09375 168.484 6.69531 168.172 6.38281C167.865 6.07031 167.471 5.91406 166.992 5.91406C166.378 5.91406 165.904 6.13802 165.57 6.58594C165.237 7.02865 165.068 7.70312 165.062 8.60938V8.91406C165.062 9.83073 165.227 10.5156 165.555 10.9688C165.888 11.4167 166.367 11.6406 166.992 11.6406ZM174.852 10.2812L176.57 4.54688H178.594L175.234 14.2812C174.719 15.7031 173.844 16.4141 172.609 16.4141C172.333 16.4141 172.029 16.3672 171.695 16.2734V14.8047L172.055 14.8281C172.534 14.8281 172.893 14.7396 173.133 14.5625C173.378 14.3906 173.57 14.099 173.711 13.6875L173.984 12.9609L171.016 4.54688H173.062L174.852 10.2812ZM192.883 13H190.906L185.836 4.92969V13H183.859V1.625H185.836L190.922 9.72656V1.625H192.883V13ZM200.156 12.1719C199.599 12.8281 198.807 13.1562 197.781 13.1562C196.865 13.1562 196.169 12.888 195.695 12.3516C195.227 11.8151 194.992 11.0391 194.992 10.0234V4.54688H196.891V10C196.891 11.0729 197.336 11.6094 198.227 11.6094C199.148 11.6094 199.771 11.2786 200.094 10.6172V4.54688H201.992V13H200.203L200.156 12.1719ZM205.711 4.54688L205.766 5.42969C206.359 4.73698 207.172 4.39062 208.203 4.39062C209.333 4.39062 210.107 4.82292 210.523 5.6875C211.138 4.82292 212.003 4.39062 213.117 4.39062C214.049 4.39062 214.742 4.64844 215.195 5.16406C215.654 5.67969 215.888 6.4401 215.898 7.44531V13H214V7.5C214 6.96354 213.883 6.57031 213.648 6.32031C213.414 6.07031 213.026 5.94531 212.484 5.94531C212.052 5.94531 211.698 6.0625 211.422 6.29688C211.151 6.52604 210.961 6.82812 210.852 7.20312L210.859 13H208.961V7.4375C208.935 6.44271 208.427 5.94531 207.438 5.94531C206.677 5.94531 206.138 6.25521 205.82 6.875V13H203.922V4.54688H205.711ZM225.266 8.85938C225.266 10.1719 224.971 11.2161 224.383 11.9922C223.799 12.7682 222.995 13.1562 221.969 13.1562C220.979 13.1562 220.208 12.7995 219.656 12.0859L219.562 13H217.844V1H219.742V5.35938C220.289 4.71354 221.026 4.39062 221.953 4.39062C222.984 4.39062 223.794 4.77344 224.383 5.53906C224.971 6.30469 225.266 7.375 225.266 8.75V8.85938ZM223.367 8.69531C223.367 7.77865 223.206 7.09115 222.883 6.63281C222.56 6.17448 222.091 5.94531 221.477 5.94531C220.654 5.94531 220.076 6.30469 219.742 7.02344V10.5078C220.081 11.2422 220.664 11.6094 221.492 11.6094C222.086 11.6094 222.544 11.388 222.867 10.9453C223.19 10.5026 223.357 9.83333 223.367 8.9375V8.69531ZM230.586 13.1562C229.383 13.1562 228.406 12.7786 227.656 12.0234C226.911 11.263 226.539 10.2526 226.539 8.99219V8.75781C226.539 7.91406 226.701 7.16146 227.023 6.5C227.352 5.83333 227.81 5.3151 228.398 4.94531C228.987 4.57552 229.643 4.39062 230.367 4.39062C231.518 4.39062 232.406 4.75781 233.031 5.49219C233.661 6.22656 233.977 7.26562 233.977 8.60938V9.375H228.453C228.51 10.0729 228.742 10.625 229.148 11.0312C229.56 11.4375 230.076 11.6406 230.695 11.6406C231.565 11.6406 232.273 11.2891 232.82 10.5859L233.844 11.5625C233.505 12.0677 233.052 12.4609 232.484 12.7422C231.922 13.0182 231.289 13.1562 230.586 13.1562ZM230.359 5.91406C229.839 5.91406 229.417 6.09635 229.094 6.46094C228.776 6.82552 228.573 7.33333 228.484 7.98438H232.102V7.84375C232.06 7.20833 231.891 6.72917 231.594 6.40625C231.297 6.07812 230.885 5.91406 230.359 5.91406ZM239.883 6.28125C239.633 6.23958 239.375 6.21875 239.109 6.21875C238.24 6.21875 237.654 6.55208 237.352 7.21875V13H235.453V4.54688H237.266L237.312 5.49219C237.771 4.75781 238.406 4.39062 239.219 4.39062C239.49 4.39062 239.714 4.42708 239.891 4.5L239.883 6.28125ZM245.82 10.7031C245.82 10.3646 245.68 10.1068 245.398 9.92969C245.122 9.7526 244.661 9.59635 244.016 9.46094C243.37 9.32552 242.831 9.15365 242.398 8.94531C241.451 8.48698 240.977 7.82292 240.977 6.95312C240.977 6.22396 241.284 5.61458 241.898 5.125C242.513 4.63542 243.294 4.39062 244.242 4.39062C245.253 4.39062 246.068 4.64062 246.688 5.14062C247.312 5.64062 247.625 6.28906 247.625 7.08594H245.727C245.727 6.72135 245.591 6.41927 245.32 6.17969C245.049 5.9349 244.69 5.8125 244.242 5.8125C243.826 5.8125 243.484 5.90885 243.219 6.10156C242.958 6.29427 242.828 6.55208 242.828 6.875C242.828 7.16667 242.951 7.39323 243.195 7.55469C243.44 7.71615 243.935 7.88021 244.68 8.04688C245.424 8.20833 246.008 8.40365 246.43 8.63281C246.857 8.85677 247.172 9.1276 247.375 9.44531C247.583 9.76302 247.688 10.1484 247.688 10.6016C247.688 11.362 247.372 11.9792 246.742 12.4531C246.112 12.9219 245.286 13.1562 244.266 13.1562C243.573 13.1562 242.956 13.0312 242.414 12.7812C241.872 12.5312 241.451 12.1875 241.148 11.75C240.846 11.3125 240.695 10.8411 240.695 10.3359H242.539C242.565 10.7839 242.734 11.1302 243.047 11.375C243.359 11.6146 243.773 11.7344 244.289 11.7344C244.789 11.7344 245.169 11.6406 245.43 11.4531C245.69 11.2604 245.82 11.0104 245.82 10.7031ZM9.47656 39.625V47.2266C9.47656 48.4349 9.08854 49.3932 8.3125 50.1016C7.54167 50.8047 6.51302 51.1562 5.22656 51.1562C3.92448 51.1562 2.89062 50.8099 2.125 50.1172C1.35938 49.4193 0.976562 48.4531 0.976562 47.2188V39.625H2.94531V47.2344C2.94531 47.9948 3.13802 48.5755 3.52344 48.9766C3.90885 49.3776 4.47656 49.5781 5.22656 49.5781C6.7474 49.5781 7.50781 48.776 7.50781 47.1719V39.625H9.47656ZM14.8594 46.0859L13.5703 47.4531V51H11.5938V39.625H13.5703V44.9609L14.6641 43.6094L17.9922 39.625H20.3828L16.1562 44.6641L20.625 51H18.2812L14.8594 46.0859ZM27.6484 49.4219H32.8125V51H25.6719V39.625H27.6484V49.4219ZM37.8672 51.1562C36.6641 51.1562 35.6875 50.7786 34.9375 50.0234C34.1927 49.263 33.8203 48.2526 33.8203 46.9922V46.7578C33.8203 45.9141 33.9818 45.1615 34.3047 44.5C34.6328 43.8333 35.0911 43.3151 35.6797 42.9453C36.2682 42.5755 36.9245 42.3906 37.6484 42.3906C38.7995 42.3906 39.6875 42.7578 40.3125 43.4922C40.9427 44.2266 41.2578 45.2656 41.2578 46.6094V47.375H35.7344C35.7917 48.0729 36.0234 48.625 36.4297 49.0312C36.8411 49.4375 37.3568 49.6406 37.9766 49.6406C38.8464 49.6406 39.5547 49.2891 40.1016 48.5859L41.125 49.5625C40.7865 50.0677 40.3333 50.4609 39.7656 50.7422C39.2031 51.0182 38.5703 51.1562 37.8672 51.1562ZM37.6406 43.9141C37.1198 43.9141 36.6979 44.0964 36.375 44.4609C36.0573 44.8255 35.8542 45.3333 35.7656 45.9844H39.3828V45.8438C39.3411 45.2083 39.1719 44.7292 38.875 44.4062C38.5781 44.0781 38.1667 43.9141 37.6406 43.9141ZM42.4062 46.7109C42.4062 45.3984 42.7135 44.3516 43.3281 43.5703C43.9479 42.7839 44.7682 42.3906 45.7891 42.3906C46.7526 42.3906 47.5104 42.7266 48.0625 43.3984L48.1484 42.5469H49.8594V50.7422C49.8594 51.8516 49.513 52.7266 48.8203 53.3672C48.1328 54.0078 47.2031 54.3281 46.0312 54.3281C45.4115 54.3281 44.8047 54.1979 44.2109 53.9375C43.6224 53.6823 43.1745 53.3464 42.8672 52.9297L43.7656 51.7891C44.349 52.4818 45.0677 52.8281 45.9219 52.8281C46.5521 52.8281 47.0495 52.6562 47.4141 52.3125C47.7786 51.974 47.9609 51.474 47.9609 50.8125V50.2422C47.4141 50.8516 46.6849 51.1562 45.7734 51.1562C44.7839 51.1562 43.974 50.763 43.3438 49.9766C42.7188 49.1901 42.4062 48.1016 42.4062 46.7109ZM44.2969 46.875C44.2969 47.724 44.4688 48.3932 44.8125 48.8828C45.1615 49.3672 45.6432 49.6094 46.2578 49.6094C47.0234 49.6094 47.5911 49.2812 47.9609 48.625V44.9062C47.6016 44.2656 47.0391 43.9453 46.2734 43.9453C45.6484 43.9453 45.1615 44.1927 44.8125 44.6875C44.4688 45.1823 44.2969 45.9115 44.2969 46.875ZM56.8672 51C56.7839 50.8385 56.7109 50.5755 56.6484 50.2109C56.0443 50.8411 55.3047 51.1562 54.4297 51.1562C53.5807 51.1562 52.888 50.9141 52.3516 50.4297C51.8151 49.9453 51.5469 49.3464 51.5469 48.6328C51.5469 47.7318 51.8802 47.0417 52.5469 46.5625C53.2188 46.0781 54.1771 45.8359 55.4219 45.8359H56.5859V45.2812C56.5859 44.8438 56.4635 44.4948 56.2188 44.2344C55.974 43.9688 55.6016 43.8359 55.1016 43.8359C54.6693 43.8359 54.3151 43.9453 54.0391 44.1641C53.763 44.3776 53.625 44.651 53.625 44.9844H51.7266C51.7266 44.5208 51.8802 44.0885 52.1875 43.6875C52.4948 43.2812 52.9115 42.9635 53.4375 42.7344C53.9688 42.5052 54.5599 42.3906 55.2109 42.3906C56.2005 42.3906 56.9896 42.6406 57.5781 43.1406C58.1667 43.6354 58.4688 44.3333 58.4844 45.2344V49.0469C58.4844 49.8073 58.5911 50.4141 58.8047 50.8672V51H56.8672ZM54.7812 49.6328C55.1562 49.6328 55.5078 49.5417 55.8359 49.3594C56.1693 49.1771 56.4193 48.9323 56.5859 48.625V47.0312H55.5625C54.8594 47.0312 54.3307 47.1536 53.9766 47.3984C53.6224 47.6432 53.4453 47.9896 53.4453 48.4375C53.4453 48.8021 53.5651 49.0938 53.8047 49.3125C54.0495 49.526 54.375 49.6328 54.7812 49.6328ZM62.4922 51H60.5938V39H62.4922V51ZM75.1016 48.3516H70.6953L69.7734 51H67.7188L72.0156 39.625H73.7891L78.0938 51H76.0312L75.1016 48.3516ZM71.25 46.7578H74.5469L72.8984 42.0391L71.25 46.7578ZM78.8516 46.7109C78.8516 45.4089 79.1536 44.3646 79.7578 43.5781C80.362 42.7865 81.1719 42.3906 82.1875 42.3906C83.0833 42.3906 83.8073 42.7031 84.3594 43.3281V39H86.2578V51H84.5391L84.4453 50.125C83.8776 50.8125 83.1198 51.1562 82.1719 51.1562C81.1823 51.1562 80.3802 50.7578 79.7656 49.9609C79.1562 49.1641 78.8516 48.0807 78.8516 46.7109ZM80.75 46.875C80.75 47.7344 80.9141 48.4062 81.2422 48.8906C81.5755 49.3698 82.0469 49.6094 82.6562 49.6094C83.4323 49.6094 84 49.263 84.3594 48.5703V44.9609C84.0104 44.2839 83.4479 43.9453 82.6719 43.9453C82.0573 43.9453 81.5833 44.1901 81.25 44.6797C80.9167 45.1641 80.75 45.8958 80.75 46.875ZM91.2188 48.5938L93.0078 42.5469H94.9688L92.0391 51H90.3906L87.4375 42.5469H89.4062L91.2188 48.5938ZM98.1797 51H96.2812V42.5469H98.1797V51ZM96.1641 40.3516C96.1641 40.0599 96.2552 39.8177 96.4375 39.625C96.625 39.4323 96.8906 39.3359 97.2344 39.3359C97.5781 39.3359 97.8438 39.4323 98.0312 39.625C98.2188 39.8177 98.3125 40.0599 98.3125 40.3516C98.3125 40.638 98.2188 40.8776 98.0312 41.0703C97.8438 41.2578 97.5781 41.3516 97.2344 41.3516C96.8906 41.3516 96.625 41.2578 96.4375 41.0703C96.2552 40.8776 96.1641 40.638 96.1641 40.3516ZM103.727 49.6406C104.201 49.6406 104.594 49.5026 104.906 49.2266C105.219 48.9505 105.385 48.6094 105.406 48.2031H107.195C107.174 48.7292 107.01 49.2214 106.703 49.6797C106.396 50.1328 105.979 50.4922 105.453 50.7578C104.927 51.0234 104.359 51.1562 103.75 51.1562C102.568 51.1562 101.63 50.7734 100.938 50.0078C100.245 49.2422 99.8984 48.1849 99.8984 46.8359V46.6406C99.8984 45.3542 100.242 44.3255 100.93 43.5547C101.617 42.7786 102.555 42.3906 103.742 42.3906C104.747 42.3906 105.565 42.6849 106.195 43.2734C106.831 43.8568 107.164 44.625 107.195 45.5781H105.406C105.385 45.0938 105.219 44.6953 104.906 44.3828C104.599 44.0703 104.206 43.9141 103.727 43.9141C103.112 43.9141 102.638 44.138 102.305 44.5859C101.971 45.0286 101.802 45.7031 101.797 46.6094V46.9141C101.797 47.8307 101.961 48.5156 102.289 48.9688C102.622 49.4167 103.102 49.6406 103.727 49.6406ZM112.352 51.1562C111.148 51.1562 110.172 50.7786 109.422 50.0234C108.677 49.263 108.305 48.2526 108.305 46.9922V46.7578C108.305 45.9141 108.466 45.1615 108.789 44.5C109.117 43.8333 109.576 43.3151 110.164 42.9453C110.753 42.5755 111.409 42.3906 112.133 42.3906C113.284 42.3906 114.172 42.7578 114.797 43.4922C115.427 44.2266 115.742 45.2656 115.742 46.6094V47.375H110.219C110.276 48.0729 110.508 48.625 110.914 49.0312C111.326 49.4375 111.841 49.6406 112.461 49.6406C113.331 49.6406 114.039 49.2891 114.586 48.5859L115.609 49.5625C115.271 50.0677 114.818 50.4609 114.25 50.7422C113.688 51.0182 113.055 51.1562 112.352 51.1562ZM112.125 43.9141C111.604 43.9141 111.182 44.0964 110.859 44.4609C110.542 44.8255 110.339 45.3333 110.25 45.9844H113.867V45.8438C113.826 45.2083 113.656 44.7292 113.359 44.4062C113.062 44.0781 112.651 43.9141 112.125 43.9141Z" fill="black"/>
</svg>
