<svg width="394" height="338" viewBox="0 0 394 338" fill="none" xmlns="http://www.w3.org/2000/svg">
<path d="M100.688 266V231.488H128.096C130.048 231.488 131.728 232.192 133.136 233.6C134.544 235.008 135.248 236.672 135.248 238.592V247.52C135.248 249.44 134.544 251.104 133.136 252.512C131.728 253.92 130.048 254.624 128.096 254.624L108.128 254.672V266H100.688ZM109.712 247.136H126.128C127.184 247.136 127.712 247.136 127.712 247.136C127.712 247.136 127.712 246.608 127.712 245.552V240.512C127.712 239.456 127.712 238.928 127.712 238.928C127.712 238.928 127.184 238.928 126.128 238.928H109.712C108.656 238.928 108.128 238.928 108.128 238.928C108.128 238.928 108.128 239.456 108.128 240.512V245.552C108.128 246.608 108.128 247.136 108.128 247.136C108.128 247.136 108.656 247.136 109.712 247.136ZM143.409 266V231.488H170.817C172.769 231.488 174.449 232.192 175.857 233.6C177.265 235.008 177.969 236.672 177.969 238.592V247.52C177.969 249.44 177.265 251.104 175.857 252.512C174.449 253.92 172.769 254.624 170.817 254.624H170.481L177.969 263.456V266H170.289L160.737 254.624L150.849 254.672V266H143.409ZM152.433 247.136H168.849C169.905 247.136 170.433 247.136 170.433 247.136C170.433 247.136 170.433 246.608 170.433 245.552V240.512C170.433 239.456 170.433 238.928 170.433 238.928C170.433 238.928 169.905 238.928 168.849 238.928H152.433C151.377 238.928 150.849 238.928 150.849 238.928C150.849 238.928 150.849 239.456 150.849 240.512V245.552C150.849 246.608 150.849 247.136 150.849 247.136C150.849 247.136 151.377 247.136 152.433 247.136ZM194.874 266C192.922 266 191.242 265.312 189.834 263.936C188.458 262.528 187.77 260.848 187.77 258.896V238.544C187.77 236.592 188.458 234.928 189.834 233.552C191.242 232.144 192.922 231.44 194.874 231.44H215.226C217.146 231.44 218.81 232.144 220.218 233.552C221.626 234.928 222.33 236.592 222.33 238.544V258.896C222.33 260.848 221.626 262.528 220.218 263.936C218.81 265.312 217.146 266 215.226 266H194.874ZM196.794 258.512H213.21C214.266 258.512 214.794 258.512 214.794 258.512C214.794 258.512 214.794 257.984 214.794 256.928V240.512C214.794 239.456 214.794 238.928 214.794 238.928C214.794 238.928 214.266 238.928 213.21 238.928H196.794C195.738 238.928 195.21 238.928 195.21 238.928C195.21 238.928 195.21 239.456 195.21 240.512V256.928C195.21 257.984 195.21 258.512 195.21 258.512C195.21 258.512 195.738 258.512 196.794 258.512ZM244.224 266V238.928H230.688V231.44H265.248V238.928H251.712V266H244.224ZM273.734 266V231.44H305.654V238.928H281.27V244.976H300.902V252.464H281.27V258.512H305.654V266H273.734ZM322.196 266C320.244 266 318.564 265.312 317.156 263.936C315.78 262.528 315.092 260.848 315.092 258.896V255.68H322.532V256.928C322.532 257.984 322.532 258.512 322.532 258.512C322.532 258.512 323.06 258.512 324.116 258.512H340.532C341.588 258.512 342.116 258.512 342.116 258.512C342.116 258.512 342.116 257.984 342.116 256.928V254.048C342.116 252.992 342.116 252.464 342.116 252.464C342.116 252.464 341.588 252.464 340.532 252.464H322.196C320.244 252.464 318.564 251.776 317.156 250.4C315.78 248.992 315.092 247.312 315.092 245.36V238.544C315.092 236.592 315.78 234.928 317.156 233.552C318.564 232.144 320.244 231.44 322.196 231.44H342.548C344.468 231.44 346.132 232.144 347.54 233.552C348.948 234.928 349.652 236.592 349.652 238.544V241.76H342.116V240.512C342.116 239.456 342.116 238.928 342.116 238.928C342.116 238.928 341.588 238.928 340.532 238.928H324.116C323.06 238.928 322.532 238.928 322.532 238.928C322.532 238.928 322.532 239.456 322.532 240.512V243.392C322.532 244.448 322.532 244.976 322.532 244.976C322.532 244.976 323.06 244.976 324.116 244.976H342.548C344.468 244.976 346.132 245.68 347.54 247.088C348.948 248.464 349.652 250.128 349.652 252.08V258.896C349.652 260.848 348.948 262.528 347.54 263.936C346.132 265.312 344.468 266 342.548 266H322.196ZM371.546 266V238.928H358.01V231.44H392.57V238.928H379.034V266H371.546ZM107.792 326C105.84 326 104.16 325.312 102.752 323.936C101.376 322.528 100.688 320.848 100.688 318.896V298.544C100.688 296.592 101.376 294.928 102.752 293.552C104.16 292.144 105.84 291.44 107.792 291.44H128.096C130.048 291.44 131.728 292.144 133.136 293.552C134.544 294.928 135.248 296.592 135.248 298.544V301.808H127.712V300.512C127.712 299.456 127.712 298.928 127.712 298.928C127.712 298.928 127.184 298.928 126.128 298.928H109.712C108.656 298.928 108.128 298.928 108.128 298.928C108.128 298.928 108.128 299.456 108.128 300.512V316.928C108.128 317.984 108.128 318.512 108.128 318.512C108.128 318.512 108.656 318.512 109.712 318.512H126.128C127.184 318.512 127.712 318.512 127.712 318.512C127.712 318.512 127.712 317.984 127.712 316.928V313.328H120.224V305.84H135.248V318.896C135.248 320.848 134.544 322.528 133.136 323.936C131.728 325.312 130.048 326 128.096 326H107.792ZM145.428 326V291.44H177.348V298.928H152.964V304.976H172.596V312.464H152.964V318.512H177.348V326H145.428ZM186.978 326V298.544C186.978 296.592 187.666 294.928 189.042 293.552C190.45 292.144 192.13 291.44 194.082 291.44H214.386C216.338 291.44 218.018 292.144 219.426 293.552C220.834 294.928 221.538 296.592 221.538 298.544V326H214.002V314.864H194.418V326H186.978ZM194.418 307.376H214.002V300.512C214.002 299.456 214.002 298.928 214.002 298.928C214.002 298.928 213.474 298.928 212.418 298.928H196.002C194.946 298.928 194.418 298.928 194.418 298.928C194.418 298.928 194.418 299.456 194.418 300.512V307.376ZM231.759 326V291.488H259.167C261.119 291.488 262.799 292.192 264.207 293.6C265.615 295.008 266.319 296.672 266.319 298.592V307.52C266.319 309.44 265.615 311.104 264.207 312.512C262.799 313.92 261.119 314.624 259.167 314.624H258.831L266.319 323.456V326H258.639L249.087 314.624L239.199 314.672V326H231.759ZM240.783 307.136H257.199C258.255 307.136 258.783 307.136 258.783 307.136C258.783 307.136 258.783 306.608 258.783 305.552V300.512C258.783 299.456 258.783 298.928 258.783 298.928C258.783 298.928 258.255 298.928 257.199 298.928H240.783C239.727 298.928 239.199 298.928 239.199 298.928C239.199 298.928 239.199 299.456 239.199 300.512V305.552C239.199 306.608 239.199 307.136 239.199 307.136C239.199 307.136 239.727 307.136 240.783 307.136Z" fill="black"/>
<path d="M102.64 197V162.488H130.048C132 162.488 133.68 163.192 135.088 164.6C136.496 166.008 137.2 167.672 137.2 169.592V178.52C137.2 180.44 136.496 182.104 135.088 183.512C133.68 184.92 132 185.624 130.048 185.624H129.712L137.2 194.456V197H129.52L119.968 185.624L110.08 185.672V197H102.64ZM111.664 178.136H128.08C129.136 178.136 129.664 178.136 129.664 178.136C129.664 178.136 129.664 177.608 129.664 176.552V171.512C129.664 170.456 129.664 169.928 129.664 169.928C129.664 169.928 129.136 169.928 128.08 169.928H111.664C110.608 169.928 110.08 169.928 110.08 169.928C110.08 169.928 110.08 170.456 110.08 171.512V176.552C110.08 177.608 110.08 178.136 110.08 178.136C110.08 178.136 110.608 178.136 111.664 178.136ZM146.905 197V162.44H154.249V197H146.905ZM169.267 197C167.315 197 165.635 196.312 164.227 194.936C162.851 193.528 162.163 191.848 162.163 189.896V169.544C162.163 167.592 162.851 165.928 164.227 164.552C165.635 163.144 167.315 162.44 169.267 162.44H189.571C191.523 162.44 193.203 163.144 194.611 164.552C196.019 165.928 196.723 167.592 196.723 169.544V172.808H189.187V171.512C189.187 170.456 189.187 169.928 189.187 169.928C189.187 169.928 188.659 169.928 187.603 169.928H171.187C170.131 169.928 169.603 169.928 169.603 169.928C169.603 169.928 169.603 170.456 169.603 171.512V187.928C169.603 188.984 169.603 189.512 169.603 189.512C169.603 189.512 170.131 189.512 171.187 189.512H187.603C188.659 189.512 189.187 189.512 189.187 189.512C189.187 189.512 189.187 188.984 189.187 187.928V184.328H181.699V176.84H196.723V189.896C196.723 191.848 196.019 193.528 194.611 194.936C193.203 196.312 191.523 197 189.571 197H169.267ZM206.855 197V162.44H214.295V175.976H234.695V162.44H242.135V197H234.695V183.464H214.295V197H206.855ZM264.243 197V169.928H250.707V162.44H285.267V169.928H271.731V197H264.243Z" fill="white"/>
<path d="M154.256 97L141.68 62.44H149.6L157.136 83.032L164.672 62.44H171.536L179.12 83.032L186.656 62.44H194.528L181.952 97H176.24L168.08 74.776L159.968 97H154.256Z" fill="white"/>
<path d="M105.696 97C103.744 97 102.064 96.312 100.656 94.936C99.28 93.528 98.592 91.848 98.592 89.896V69.544C98.592 67.592 99.28 65.928 100.656 64.552C102.064 63.144 103.744 62.44 105.696 62.44H126.048C127.968 62.44 129.632 63.144 131.04 64.552C132.448 65.928 133.152 67.592 133.152 69.544V89.896C133.152 91.848 132.448 93.528 131.04 94.936C129.632 96.312 127.968 97 126.048 97H105.696ZM107.616 89.512H124.032C125.088 89.512 125.616 89.512 125.616 89.512C125.616 89.512 125.616 88.984 125.616 87.928V71.512C125.616 70.456 125.616 69.928 125.616 69.928C125.616 69.928 125.088 69.928 124.032 69.928H107.616C106.56 69.928 106.032 69.928 106.032 69.928C106.032 69.928 106.032 70.456 106.032 71.512V87.928C106.032 88.984 106.032 89.512 106.032 89.512C106.032 89.512 106.56 89.512 107.616 89.512Z" fill="white"/>
<path d="M2.736 96V61.44H10.224V74.976H16.992L28.32 61.44H36.096V64.032L23.76 78.72L36.096 93.408V96H28.32L16.992 82.464H10.224V96H2.736ZM45.738 96V61.44H53.418L72.762 84.48V61.44H80.298V96H72.618L53.178 72.864V96H45.738Z" fill="white"/>
<path d="M107.696 146C105.744 146 104.064 145.312 102.656 143.936C101.28 142.528 100.592 140.848 100.592 138.896V111.44H108.032V136.928C108.032 137.984 108.032 138.512 108.032 138.512C108.032 138.512 108.56 138.512 109.616 138.512H126.032C127.088 138.512 127.616 138.512 127.616 138.512C127.616 138.512 127.616 137.984 127.616 136.928V111.44H135.152V138.896C135.152 140.848 134.448 142.528 133.04 143.936C131.632 145.312 129.968 146 128.048 146H107.696Z" fill="white"/>
<path d="M116.8 48V35.088L100.816 13.44H109.696L120.544 27.072L131.344 13.44H140.32L124.288 35.136V48H116.8Z" fill="white"/>
</svg>
