<svg width="872" height="73" viewBox="0 0 872 73" fill="none" xmlns="http://www.w3.org/2000/svg">
<path d="M0.6 73V1.1H59.5C63.1667 1.1 66.2667 2.4 68.8 5C71.3333 7.53333 72.6 10.5667 72.6 14.1V34.3C72.6 37.8333 71.3333 40.9 68.8 43.5C66.2667 46.0333 63.1667 47.3 59.5 47.3L11.4 47.4V73H0.6ZM15.1 36.4H58C59.4667 36.4 60.4333 36.1667 60.9 35.7C61.4333 35.2333 61.7 34.2667 61.7 32.8V15.6C61.7 14.1333 61.4333 13.1667 60.9 12.7C60.4333 12.1667 59.4667 11.9 58 11.9H15.1C13.6333 11.9 12.6333 12.1667 12.1 12.7C11.6333 13.1667 11.4 14.1333 11.4 15.6V32.8C11.4 34.2667 11.6333 35.2333 12.1 35.7C12.6333 36.1667 13.6333 36.4 15.1 36.4ZM80.4875 73V14C80.4875 10.4 81.7542 7.33333 84.2875 4.8C86.8208 2.26666 89.8875 0.999997 93.4875 0.999997H139.388C142.988 0.999997 146.054 2.26666 148.588 4.8C151.188 7.33333 152.488 10.4 152.488 14V73H141.588V47.8H91.2875V73H80.4875ZM91.2875 37H141.588V15.5C141.588 14.0333 141.321 13.0667 140.788 12.6C140.321 12.0667 139.354 11.8 137.888 11.8H94.9875C93.5208 11.8 92.5208 12.0667 91.9875 12.6C91.5208 13.0667 91.2875 14.0333 91.2875 15.5V37ZM163.981 73V0.899998H174.781V62.2H235.981V73H163.981ZM241.411 73V0.999997H252.211V73H241.411ZM263.688 73V0.999997H274.588V31.5H294.488L320.088 0.999997H332.588V3L304.088 37L332.688 71V73H320.088L294.488 42.4H274.588V73H263.688ZM340.741 73V14C340.741 10.4 342.008 7.33333 344.541 4.8C347.075 2.26666 350.141 0.999997 353.741 0.999997H399.641C403.241 0.999997 406.308 2.26666 408.841 4.8C411.441 7.33333 412.741 10.4 412.741 14V73H401.841V47.8H351.541V73H340.741ZM351.541 37H401.841V15.5C401.841 14.0333 401.575 13.0667 401.041 12.6C400.575 12.0667 399.608 11.8 398.141 11.8H355.241C353.775 11.8 352.775 12.0667 352.241 12.6C351.775 13.0667 351.541 14.0333 351.541 15.5V37ZM453.139 73V0.999997H466.039L493.939 34.2L521.739 0.999997H534.739V73H523.839V15.5L493.939 51.1L463.939 15.5V73H453.139ZM546.113 73V14C546.113 10.4 547.379 7.33333 549.913 4.8C552.446 2.26666 555.513 0.999997 559.113 0.999997H605.013C608.613 0.999997 611.679 2.26666 614.213 4.8C616.813 7.33333 618.113 10.4 618.113 14V73H607.213V47.8H556.913V73H546.113ZM556.913 37H607.213V15.5C607.213 14.0333 606.946 13.0667 606.413 12.6C605.946 12.0667 604.979 11.8 603.513 11.8H560.613C559.146 11.8 558.146 12.0667 557.613 12.6C557.146 13.0667 556.913 14.0333 556.913 15.5V37ZM629.606 73V0.999997H640.506V31.5H660.406L686.006 0.999997H698.506V3L670.006 37L698.606 71V73H686.006L660.406 42.4H640.506V73H629.606ZM706.659 73V14C706.659 10.4 707.926 7.33333 710.459 4.8C712.993 2.26666 716.059 0.999997 719.659 0.999997H765.559C769.159 0.999997 772.226 2.26666 774.759 4.8C777.359 7.33333 778.659 10.4 778.659 14V73H767.759V47.8H717.459V73H706.659ZM717.459 37H767.759V15.5C767.759 14.0333 767.493 13.0667 766.959 12.6C766.493 12.0667 765.526 11.8 764.059 11.8H721.159C719.693 11.8 718.693 12.0667 718.159 12.6C717.693 13.0667 717.459 14.0333 717.459 15.5V37ZM790.053 73V0.999997H802.953L830.853 34.2L858.653 0.999997H871.653V73H860.753V15.5L830.853 51.1L800.853 15.5V73H790.053Z" fill="black"/>
</svg>
