<svg width="227" height="128" viewBox="0 0 227 128" fill="none" xmlns="http://www.w3.org/2000/svg">
<path d="M6.13867 26H2.03711V6.09375H6.13867V26ZM26.1406 26H22.0391L14.0547 12.9023V26H9.95312V6.09375H14.0547L22.0527 19.2188V6.09375H26.1406V26ZM41.6992 17.8652H33.8242V26H29.7227V6.09375H42.6836V9.41602H33.8242V14.5566H41.6992V17.8652ZM61.4141 16.498C61.4141 18.4577 61.0677 20.1758 60.375 21.6523C59.6823 23.1289 58.6888 24.2682 57.3945 25.0703C56.1094 25.8724 54.6328 26.2734 52.9648 26.2734C51.3151 26.2734 49.8431 25.877 48.5488 25.084C47.2546 24.291 46.252 23.1608 45.541 21.6934C44.8301 20.2168 44.4701 18.5215 44.4609 16.6074V15.623C44.4609 13.6634 44.8118 11.9408 45.5137 10.4551C46.2246 8.96029 47.2227 7.81641 48.5078 7.02344C49.8021 6.22135 51.2786 5.82031 52.9375 5.82031C54.5964 5.82031 56.0684 6.22135 57.3535 7.02344C58.6478 7.81641 59.6458 8.96029 60.3477 10.4551C61.0586 11.9408 61.4141 13.6589 61.4141 15.6094V16.498ZM57.2578 15.5957C57.2578 13.5085 56.8841 11.9225 56.1367 10.8379C55.3893 9.75326 54.3229 9.21094 52.9375 9.21094C51.5612 9.21094 50.4993 9.7487 49.752 10.8242C49.0046 11.8906 48.6263 13.4583 48.6172 15.5273V16.498C48.6172 18.5306 48.9909 20.1074 49.7383 21.2285C50.4857 22.3496 51.5612 22.9102 52.9648 22.9102C54.3411 22.9102 55.3984 22.3724 56.1367 21.2969C56.875 20.2122 57.2487 18.6354 57.2578 16.5664V15.5957Z" fill="black"/>
<path d="M8.29199 44.0469V50.6982C8.29199 51.7555 7.95247 52.5941 7.27344 53.2139C6.59896 53.8291 5.69889 54.1367 4.57324 54.1367C3.43392 54.1367 2.5293 53.8337 1.85938 53.2275C1.18945 52.6169 0.854492 51.7715 0.854492 50.6914V44.0469H2.57715V50.7051C2.57715 51.3704 2.74577 51.8786 3.08301 52.2295C3.42025 52.5804 3.91699 52.7559 4.57324 52.7559C5.90397 52.7559 6.56934 52.054 6.56934 50.6504V44.0469H8.29199ZM14.1299 51.9902C14.1299 51.694 14.0068 51.4684 13.7607 51.3135C13.5192 51.1585 13.1159 51.0218 12.5508 50.9033C11.9857 50.7848 11.514 50.6344 11.1357 50.4521C10.3063 50.0511 9.8916 49.4701 9.8916 48.709C9.8916 48.071 10.1605 47.5378 10.6982 47.1094C11.236 46.681 11.9196 46.4668 12.749 46.4668C13.6331 46.4668 14.3464 46.6855 14.8887 47.123C15.4355 47.5605 15.709 48.1279 15.709 48.8252H14.0479C14.0479 48.5062 13.9294 48.2419 13.6924 48.0322C13.4554 47.818 13.141 47.7109 12.749 47.7109C12.3844 47.7109 12.0859 47.7952 11.8535 47.9639C11.6257 48.1325 11.5117 48.3581 11.5117 48.6406C11.5117 48.8958 11.6188 49.0941 11.833 49.2354C12.0472 49.3766 12.4801 49.5202 13.1318 49.666C13.7835 49.8073 14.2939 49.9782 14.6631 50.1787C15.0368 50.3747 15.3125 50.6117 15.4902 50.8896C15.6725 51.1676 15.7637 51.5049 15.7637 51.9014C15.7637 52.5667 15.488 53.1068 14.9365 53.5215C14.3851 53.9316 13.6628 54.1367 12.7695 54.1367C12.1634 54.1367 11.6234 54.0273 11.1494 53.8086C10.6755 53.5898 10.3063 53.2891 10.042 52.9062C9.77767 52.5234 9.64551 52.111 9.64551 51.6689H11.2588C11.2816 52.0609 11.4297 52.3639 11.7031 52.5781C11.9766 52.7878 12.3389 52.8926 12.79 52.8926C13.2275 52.8926 13.5602 52.8105 13.7881 52.6465C14.016 52.4779 14.1299 52.2591 14.1299 51.9902ZM20.4736 54.1367C19.4209 54.1367 18.5664 53.8063 17.9102 53.1455C17.2585 52.4801 16.9326 51.596 16.9326 50.4932V50.2881C16.9326 49.5498 17.0739 48.8913 17.3564 48.3125C17.6436 47.7292 18.0446 47.2757 18.5596 46.9521C19.0745 46.6286 19.6488 46.4668 20.2822 46.4668C21.2894 46.4668 22.0664 46.7881 22.6133 47.4307C23.1647 48.0732 23.4404 48.9824 23.4404 50.1582V50.8281H18.6074C18.6576 51.4388 18.8604 51.9219 19.2158 52.2773C19.5758 52.6328 20.027 52.8105 20.5693 52.8105C21.3304 52.8105 21.9502 52.5029 22.4287 51.8877L23.3242 52.7422C23.028 53.1842 22.6315 53.5283 22.1348 53.7744C21.6426 54.016 21.0889 54.1367 20.4736 54.1367ZM20.2754 47.7998C19.8197 47.7998 19.4505 47.9593 19.168 48.2783C18.89 48.5973 18.7122 49.0417 18.6348 49.6113H21.7998V49.4883C21.7633 48.9323 21.6152 48.513 21.3555 48.2305C21.0957 47.9434 20.7357 47.7998 20.2754 47.7998ZM30.8096 51.6211L32.3135 46.6035H34.084L31.1445 55.1211C30.6934 56.3652 29.9277 56.9873 28.8477 56.9873C28.6061 56.9873 28.3395 56.9463 28.0479 56.8643V55.5791L28.3623 55.5996C28.7816 55.5996 29.096 55.5221 29.3057 55.3672C29.5199 55.2168 29.6885 54.9616 29.8115 54.6016L30.0508 53.9658L27.4531 46.6035H29.2441L30.8096 51.6211ZM34.624 50.2334C34.624 49.5088 34.7676 48.8571 35.0547 48.2783C35.3418 47.695 35.7451 47.2484 36.2646 46.9385C36.7842 46.624 37.3812 46.4668 38.0557 46.4668C39.0537 46.4668 39.8626 46.7881 40.4824 47.4307C41.1068 48.0732 41.444 48.9255 41.4941 49.9873L41.501 50.377C41.501 51.1061 41.3597 51.7578 41.0771 52.332C40.7992 52.9062 40.3981 53.3506 39.874 53.665C39.3545 53.9795 38.7529 54.1367 38.0693 54.1367C37.0257 54.1367 36.1895 53.7904 35.5605 53.0977C34.9362 52.4004 34.624 51.473 34.624 50.3154V50.2334ZM36.2852 50.377C36.2852 51.138 36.4424 51.735 36.7568 52.168C37.0713 52.5964 37.5088 52.8105 38.0693 52.8105C38.6299 52.8105 39.0651 52.5918 39.375 52.1543C39.6895 51.7168 39.8467 51.0765 39.8467 50.2334C39.8467 49.486 39.6849 48.8936 39.3613 48.4561C39.0423 48.0186 38.6071 47.7998 38.0557 47.7998C37.5133 47.7998 37.0827 48.0163 36.7637 48.4492C36.4447 48.8776 36.2852 49.5202 36.2852 50.377ZM47.3867 53.2754C46.8991 53.8496 46.2064 54.1367 45.3086 54.1367C44.5065 54.1367 43.8981 53.902 43.4834 53.4326C43.0732 52.9632 42.8682 52.2842 42.8682 51.3955V46.6035H44.5293V51.375C44.5293 52.3138 44.9189 52.7832 45.6982 52.7832C46.5049 52.7832 47.0495 52.4938 47.332 51.915V46.6035H48.9932V54H47.4277L47.3867 53.2754ZM54.5576 48.1211C54.3389 48.0846 54.1133 48.0664 53.8809 48.0664C53.1198 48.0664 52.6071 48.3581 52.3428 48.9414V54H50.6816V46.6035H52.2676L52.3086 47.4307C52.7096 46.7881 53.2656 46.4668 53.9766 46.4668C54.2135 46.4668 54.4095 46.4987 54.5645 46.5625L54.5576 48.1211ZM63.2393 51.9902C63.2393 51.694 63.1162 51.4684 62.8701 51.3135C62.6286 51.1585 62.2253 51.0218 61.6602 50.9033C61.0951 50.7848 60.6234 50.6344 60.2451 50.4521C59.4157 50.0511 59.001 49.4701 59.001 48.709C59.001 48.071 59.2699 47.5378 59.8076 47.1094C60.3454 46.681 61.029 46.4668 61.8584 46.4668C62.7425 46.4668 63.4557 46.6855 63.998 47.123C64.5449 47.5605 64.8184 48.1279 64.8184 48.8252H63.1572C63.1572 48.5062 63.0387 48.2419 62.8018 48.0322C62.5648 47.818 62.2503 47.7109 61.8584 47.7109C61.4938 47.7109 61.1953 47.7952 60.9629 47.9639C60.735 48.1325 60.6211 48.3581 60.6211 48.6406C60.6211 48.8958 60.7282 49.0941 60.9424 49.2354C61.1566 49.3766 61.5895 49.5202 62.2412 49.666C62.8929 49.8073 63.4033 49.9782 63.7725 50.1787C64.1462 50.3747 64.4219 50.6117 64.5996 50.8896C64.7819 51.1676 64.873 51.5049 64.873 51.9014C64.873 52.5667 64.5973 53.1068 64.0459 53.5215C63.4945 53.9316 62.7721 54.1367 61.8789 54.1367C61.2728 54.1367 60.7327 54.0273 60.2588 53.8086C59.7848 53.5898 59.4157 53.2891 59.1514 52.9062C58.887 52.5234 58.7549 52.111 58.7549 51.6689H60.3682C60.391 52.0609 60.5391 52.3639 60.8125 52.5781C61.0859 52.7878 61.4482 52.8926 61.8994 52.8926C62.3369 52.8926 62.6696 52.8105 62.8975 52.6465C63.1253 52.4779 63.2393 52.2591 63.2393 51.9902ZM70.7451 54C70.6722 53.8587 70.6084 53.6286 70.5537 53.3096C70.0251 53.861 69.3779 54.1367 68.6123 54.1367C67.8695 54.1367 67.2633 53.9248 66.7939 53.501C66.3245 53.0771 66.0898 52.5531 66.0898 51.9287C66.0898 51.1403 66.3815 50.5365 66.9648 50.1172C67.5527 49.6934 68.3913 49.4814 69.4805 49.4814H70.499V48.9961C70.499 48.6133 70.3919 48.3079 70.1777 48.0801C69.9635 47.8477 69.6377 47.7314 69.2002 47.7314C68.8219 47.7314 68.512 47.8271 68.2705 48.0186C68.029 48.2054 67.9082 48.4447 67.9082 48.7363H66.2471C66.2471 48.3307 66.3815 47.9525 66.6504 47.6016C66.9193 47.2461 67.2839 46.9681 67.7441 46.7676C68.209 46.5671 68.7262 46.4668 69.2959 46.4668C70.1618 46.4668 70.8522 46.6855 71.3672 47.123C71.8822 47.556 72.1465 48.1667 72.1602 48.9551V52.291C72.1602 52.9564 72.2536 53.4873 72.4404 53.8838V54H70.7451ZM68.9199 52.8037C69.248 52.8037 69.5557 52.724 69.8428 52.5645C70.1344 52.4049 70.3532 52.1908 70.499 51.9219V50.5273H69.6035C68.9883 50.5273 68.5257 50.6344 68.2158 50.8486C67.9059 51.0628 67.751 51.3659 67.751 51.7578C67.751 52.0768 67.8558 52.332 68.0654 52.5234C68.2796 52.7103 68.5645 52.8037 68.9199 52.8037ZM75.4619 46.6035L75.5098 47.376C76.0293 46.7699 76.7402 46.4668 77.6426 46.4668C78.6315 46.4668 79.3083 46.8451 79.6729 47.6016C80.2106 46.8451 80.9671 46.4668 81.9424 46.4668C82.7581 46.4668 83.3643 46.6924 83.7607 47.1436C84.1618 47.5947 84.3669 48.2601 84.376 49.1396V54H82.7148V49.1875C82.7148 48.7181 82.6123 48.374 82.4072 48.1553C82.2021 47.9365 81.8626 47.8271 81.3887 47.8271C81.0104 47.8271 80.7005 47.9297 80.459 48.1348C80.222 48.3353 80.0557 48.5996 79.96 48.9277L79.9668 54H78.3057V49.1328C78.2829 48.2624 77.8385 47.8271 76.9727 47.8271C76.3073 47.8271 75.8356 48.0983 75.5576 48.6406V54H73.8965V46.6035H75.4619ZM89.9541 48.1211C89.7354 48.0846 89.5098 48.0664 89.2773 48.0664C88.5163 48.0664 88.0036 48.3581 87.7393 48.9414V54H86.0781V46.6035H87.6641L87.7051 47.4307C88.1061 46.7881 88.6621 46.4668 89.373 46.4668C89.61 46.4668 89.806 46.4987 89.9609 46.5625L89.9541 48.1211ZM93.4268 44.8057V46.6035H94.7324V47.834H93.4268V51.9629C93.4268 52.2454 93.4814 52.4505 93.5908 52.5781C93.7048 52.7012 93.9053 52.7627 94.1924 52.7627C94.3838 52.7627 94.5775 52.7399 94.7734 52.6943V53.9795C94.3952 54.0843 94.0306 54.1367 93.6797 54.1367C92.4036 54.1367 91.7656 53.4326 91.7656 52.0244V47.834H90.5488V46.6035H91.7656V44.8057H93.4268ZM102.484 50.377C102.484 51.5208 102.225 52.4346 101.705 53.1182C101.186 53.7972 100.488 54.1367 99.6133 54.1367C98.8021 54.1367 98.1527 53.8701 97.665 53.3369V56.8438H96.0039V46.6035H97.5352L97.6035 47.3555C98.0911 46.763 98.7542 46.4668 99.5928 46.4668C100.495 46.4668 101.201 46.804 101.712 47.4785C102.227 48.1484 102.484 49.0804 102.484 50.2744V50.377ZM100.83 50.2334C100.83 49.4951 100.682 48.9095 100.386 48.4766C100.094 48.0436 99.6748 47.8271 99.1279 47.8271C98.4489 47.8271 97.9613 48.1074 97.665 48.668V51.9492C97.9658 52.5234 98.458 52.8105 99.1416 52.8105C99.6702 52.8105 100.083 52.5986 100.379 52.1748C100.68 51.7464 100.83 51.0993 100.83 50.2334ZM105.533 47.4102C106.076 46.7812 106.761 46.4668 107.591 46.4668C109.168 46.4668 109.967 47.3669 109.99 49.167V54H108.329V49.2285C108.329 48.7181 108.217 48.3581 107.994 48.1484C107.775 47.9342 107.452 47.8271 107.023 47.8271C106.358 47.8271 105.861 48.1234 105.533 48.7158V54H103.872V43.5H105.533V47.4102ZM111.364 50.2334C111.364 49.5088 111.508 48.8571 111.795 48.2783C112.082 47.695 112.485 47.2484 113.005 46.9385C113.524 46.624 114.121 46.4668 114.796 46.4668C115.794 46.4668 116.603 46.7881 117.223 47.4307C117.847 48.0732 118.184 48.9255 118.234 49.9873L118.241 50.377C118.241 51.1061 118.1 51.7578 117.817 52.332C117.539 52.9062 117.138 53.3506 116.614 53.665C116.095 53.9795 115.493 54.1367 114.81 54.1367C113.766 54.1367 112.93 53.7904 112.301 53.0977C111.676 52.4004 111.364 51.473 111.364 50.3154V50.2334ZM113.025 50.377C113.025 51.138 113.183 51.735 113.497 52.168C113.812 52.5964 114.249 52.8105 114.81 52.8105C115.37 52.8105 115.805 52.5918 116.115 52.1543C116.43 51.7168 116.587 51.0765 116.587 50.2334C116.587 49.486 116.425 48.8936 116.102 48.4561C115.783 48.0186 115.347 47.7998 114.796 47.7998C114.254 47.7998 113.823 48.0163 113.504 48.4492C113.185 48.8776 113.025 49.5202 113.025 50.377ZM121.188 46.6035L121.235 47.458C121.782 46.7972 122.5 46.4668 123.389 46.4668C124.929 46.4668 125.713 47.3486 125.74 49.1123V54H124.079V49.208C124.079 48.7386 123.977 48.3923 123.771 48.1689C123.571 47.9411 123.241 47.8271 122.78 47.8271C122.11 47.8271 121.611 48.1302 121.283 48.7363V54H119.622V46.6035H121.188ZM130.696 54.1367C129.644 54.1367 128.789 53.8063 128.133 53.1455C127.481 52.4801 127.155 51.596 127.155 50.4932V50.2881C127.155 49.5498 127.297 48.8913 127.579 48.3125C127.866 47.7292 128.267 47.2757 128.782 46.9521C129.297 46.6286 129.871 46.4668 130.505 46.4668C131.512 46.4668 132.289 46.7881 132.836 47.4307C133.387 48.0732 133.663 48.9824 133.663 50.1582V50.8281H128.83C128.88 51.4388 129.083 51.9219 129.438 52.2773C129.799 52.6328 130.25 52.8105 130.792 52.8105C131.553 52.8105 132.173 52.5029 132.651 51.8877L133.547 52.7422C133.251 53.1842 132.854 53.5283 132.357 53.7744C131.865 54.016 131.312 54.1367 130.696 54.1367ZM130.498 47.7998C130.042 47.7998 129.673 47.9593 129.391 48.2783C129.113 48.5973 128.935 49.0417 128.857 49.6113H132.022V49.4883C131.986 48.9323 131.838 48.513 131.578 48.2305C131.318 47.9434 130.958 47.7998 130.498 47.7998ZM138.134 50.2471C138.134 49.1077 138.398 48.194 138.927 47.5059C139.455 46.8132 140.164 46.4668 141.053 46.4668C141.837 46.4668 142.47 46.7402 142.953 47.2871V43.5H144.614V54H143.11L143.028 53.2344C142.532 53.8359 141.868 54.1367 141.039 54.1367C140.173 54.1367 139.471 53.7881 138.934 53.0908C138.4 52.3936 138.134 51.4456 138.134 50.2471ZM139.795 50.3906C139.795 51.1426 139.938 51.7305 140.226 52.1543C140.517 52.5736 140.93 52.7832 141.463 52.7832C142.142 52.7832 142.639 52.4801 142.953 51.874V48.7158C142.648 48.1234 142.156 47.8271 141.477 47.8271C140.939 47.8271 140.524 48.0413 140.232 48.4697C139.941 48.8936 139.795 49.5339 139.795 50.3906ZM149.604 54.1367C148.552 54.1367 147.697 53.8063 147.041 53.1455C146.389 52.4801 146.063 51.596 146.063 50.4932V50.2881C146.063 49.5498 146.205 48.8913 146.487 48.3125C146.774 47.7292 147.175 47.2757 147.69 46.9521C148.205 46.6286 148.78 46.4668 149.413 46.4668C150.42 46.4668 151.197 46.7881 151.744 47.4307C152.296 48.0732 152.571 48.9824 152.571 50.1582V50.8281H147.738C147.788 51.4388 147.991 51.9219 148.347 52.2773C148.707 52.6328 149.158 52.8105 149.7 52.8105C150.461 52.8105 151.081 52.5029 151.56 51.8877L152.455 52.7422C152.159 53.1842 151.762 53.5283 151.266 53.7744C150.773 54.016 150.22 54.1367 149.604 54.1367ZM149.406 47.7998C148.951 47.7998 148.581 47.9593 148.299 48.2783C148.021 48.5973 147.843 49.0417 147.766 49.6113H150.931V49.4883C150.894 48.9323 150.746 48.513 150.486 48.2305C150.227 47.9434 149.867 47.7998 149.406 47.7998ZM156.379 51.8945L157.944 46.6035H159.66L157.097 54H155.654L153.07 46.6035H154.793L156.379 51.8945ZM162.47 54H160.809V46.6035H162.47V54ZM160.706 44.6826C160.706 44.4274 160.786 44.2155 160.945 44.0469C161.109 43.8783 161.342 43.7939 161.643 43.7939C161.943 43.7939 162.176 43.8783 162.34 44.0469C162.504 44.2155 162.586 44.4274 162.586 44.6826C162.586 44.9333 162.504 45.1429 162.34 45.3115C162.176 45.4756 161.943 45.5576 161.643 45.5576C161.342 45.5576 161.109 45.4756 160.945 45.3115C160.786 45.1429 160.706 44.9333 160.706 44.6826ZM167.323 52.8105C167.738 52.8105 168.082 52.6898 168.355 52.4482C168.629 52.2067 168.775 51.9082 168.793 51.5527H170.358C170.34 52.013 170.197 52.4437 169.928 52.8447C169.659 53.2412 169.294 53.5557 168.834 53.7881C168.374 54.0205 167.877 54.1367 167.344 54.1367C166.309 54.1367 165.489 53.8018 164.883 53.1318C164.277 52.4619 163.974 51.5368 163.974 50.3564V50.1855C163.974 49.0599 164.274 48.1598 164.876 47.4854C165.478 46.8063 166.298 46.4668 167.337 46.4668C168.216 46.4668 168.932 46.7243 169.483 47.2393C170.039 47.7497 170.331 48.4219 170.358 49.2559H168.793C168.775 48.832 168.629 48.4834 168.355 48.21C168.087 47.9365 167.743 47.7998 167.323 47.7998C166.785 47.7998 166.371 47.9958 166.079 48.3877C165.787 48.7751 165.639 49.3652 165.635 50.1582V50.4248C165.635 51.2269 165.778 51.8262 166.065 52.2227C166.357 52.6146 166.776 52.8105 167.323 52.8105ZM174.87 54.1367C173.817 54.1367 172.963 53.8063 172.307 53.1455C171.655 52.4801 171.329 51.596 171.329 50.4932V50.2881C171.329 49.5498 171.47 48.8913 171.753 48.3125C172.04 47.7292 172.441 47.2757 172.956 46.9521C173.471 46.6286 174.045 46.4668 174.679 46.4668C175.686 46.4668 176.463 46.7881 177.01 47.4307C177.561 48.0732 177.837 48.9824 177.837 50.1582V50.8281H173.004C173.054 51.4388 173.257 51.9219 173.612 52.2773C173.972 52.6328 174.424 52.8105 174.966 52.8105C175.727 52.8105 176.347 52.5029 176.825 51.8877L177.721 52.7422C177.424 53.1842 177.028 53.5283 176.531 53.7744C176.039 54.016 175.485 54.1367 174.87 54.1367ZM174.672 47.7998C174.216 47.7998 173.847 47.9593 173.564 48.2783C173.286 48.5973 173.109 49.0417 173.031 49.6113H176.196V49.4883C176.16 48.9323 176.012 48.513 175.752 48.2305C175.492 47.9434 175.132 47.7998 174.672 47.7998ZM184.7 44.8057V46.6035H186.006V47.834H184.7V51.9629C184.7 52.2454 184.755 52.4505 184.864 52.5781C184.978 52.7012 185.179 52.7627 185.466 52.7627C185.657 52.7627 185.851 52.7399 186.047 52.6943V53.9795C185.669 54.0843 185.304 54.1367 184.953 54.1367C183.677 54.1367 183.039 53.4326 183.039 52.0244V47.834H181.822V46.6035H183.039V44.8057H184.7ZM186.765 50.2334C186.765 49.5088 186.908 48.8571 187.195 48.2783C187.482 47.695 187.886 47.2484 188.405 46.9385C188.925 46.624 189.522 46.4668 190.196 46.4668C191.194 46.4668 192.003 46.7881 192.623 47.4307C193.247 48.0732 193.585 48.9255 193.635 49.9873L193.642 50.377C193.642 51.1061 193.5 51.7578 193.218 52.332C192.94 52.9062 192.539 53.3506 192.015 53.665C191.495 53.9795 190.894 54.1367 190.21 54.1367C189.166 54.1367 188.33 53.7904 187.701 53.0977C187.077 52.4004 186.765 51.473 186.765 50.3154V50.2334ZM188.426 50.377C188.426 51.138 188.583 51.735 188.897 52.168C189.212 52.5964 189.649 52.8105 190.21 52.8105C190.771 52.8105 191.206 52.5918 191.516 52.1543C191.83 51.7168 191.987 51.0765 191.987 50.2334C191.987 49.486 191.826 48.8936 191.502 48.4561C191.183 48.0186 190.748 47.7998 190.196 47.7998C189.654 47.7998 189.223 48.0163 188.904 48.4492C188.585 48.8776 188.426 49.5202 188.426 50.377ZM4.99707 67.9902C4.99707 67.694 4.87402 67.4684 4.62793 67.3135C4.38639 67.1585 3.98307 67.0218 3.41797 66.9033C2.85286 66.7848 2.38118 66.6344 2.00293 66.4521C1.1735 66.0511 0.758789 65.4701 0.758789 64.709C0.758789 64.071 1.02767 63.5378 1.56543 63.1094C2.10319 62.681 2.78678 62.4668 3.61621 62.4668C4.50033 62.4668 5.21354 62.6855 5.75586 63.123C6.30273 63.5605 6.57617 64.1279 6.57617 64.8252H4.91504C4.91504 64.5062 4.79655 64.2419 4.55957 64.0322C4.32259 63.818 4.00814 63.7109 3.61621 63.7109C3.25163 63.7109 2.95312 63.7952 2.7207 63.9639C2.49284 64.1325 2.37891 64.3581 2.37891 64.6406C2.37891 64.8958 2.486 65.0941 2.7002 65.2354C2.91439 65.3766 3.34733 65.5202 3.99902 65.666C4.65072 65.8073 5.16113 65.9782 5.53027 66.1787C5.90397 66.3747 6.17969 66.6117 6.35742 66.8896C6.53971 67.1676 6.63086 67.5049 6.63086 67.9014C6.63086 68.5667 6.35514 69.1068 5.80371 69.5215C5.25228 69.9316 4.52995 70.1367 3.63672 70.1367C3.0306 70.1367 2.49056 70.0273 2.0166 69.8086C1.54264 69.5898 1.1735 69.2891 0.90918 68.9062C0.644857 68.5234 0.512695 68.111 0.512695 67.6689H2.12598C2.14876 68.0609 2.29688 68.3639 2.57031 68.5781C2.84375 68.7878 3.20605 68.8926 3.65723 68.8926C4.09473 68.8926 4.42741 68.8105 4.65527 68.6465C4.88314 68.4779 4.99707 68.2591 4.99707 67.9902ZM11.1221 68.8105C11.5368 68.8105 11.8809 68.6898 12.1543 68.4482C12.4277 68.2067 12.5736 67.9082 12.5918 67.5527H14.1572C14.139 68.013 13.9954 68.4437 13.7266 68.8447C13.4577 69.2412 13.0931 69.5557 12.6328 69.7881C12.1725 70.0205 11.6758 70.1367 11.1426 70.1367C10.1081 70.1367 9.28776 69.8018 8.68164 69.1318C8.07552 68.4619 7.77246 67.5368 7.77246 66.3564V66.1855C7.77246 65.0599 8.07324 64.1598 8.6748 63.4854C9.27637 62.8063 10.0967 62.4668 11.1357 62.4668C12.0153 62.4668 12.7308 62.7243 13.2822 63.2393C13.8382 63.7497 14.1299 64.4219 14.1572 65.2559H12.5918C12.5736 64.832 12.4277 64.4834 12.1543 64.21C11.8854 63.9365 11.5413 63.7998 11.1221 63.7998C10.5843 63.7998 10.1696 63.9958 9.87793 64.3877C9.58626 64.7751 9.43815 65.3652 9.43359 66.1582V66.4248C9.43359 67.2269 9.57715 67.8262 9.86426 68.2227C10.1559 68.6146 10.5752 68.8105 11.1221 68.8105ZM19.8311 70C19.7581 69.8587 19.6943 69.6286 19.6396 69.3096C19.111 69.861 18.4639 70.1367 17.6982 70.1367C16.9554 70.1367 16.3493 69.9248 15.8799 69.501C15.4105 69.0771 15.1758 68.5531 15.1758 67.9287C15.1758 67.1403 15.4674 66.5365 16.0508 66.1172C16.6387 65.6934 17.4772 65.4814 18.5664 65.4814H19.585V64.9961C19.585 64.6133 19.4779 64.3079 19.2637 64.0801C19.0495 63.8477 18.7236 63.7314 18.2861 63.7314C17.9079 63.7314 17.598 63.8271 17.3564 64.0186C17.1149 64.2054 16.9941 64.4447 16.9941 64.7363H15.333C15.333 64.3307 15.4674 63.9525 15.7363 63.6016C16.0052 63.2461 16.3698 62.9681 16.8301 62.7676C17.2949 62.5671 17.8122 62.4668 18.3818 62.4668C19.2477 62.4668 19.9382 62.6855 20.4531 63.123C20.9681 63.556 21.2324 64.1667 21.2461 64.9551V68.291C21.2461 68.9564 21.3395 69.4873 21.5264 69.8838V70H19.8311ZM18.0059 68.8037C18.334 68.8037 18.6416 68.724 18.9287 68.5645C19.2204 68.4049 19.4391 68.1908 19.585 67.9219V66.5273H18.6895C18.0742 66.5273 17.6117 66.6344 17.3018 66.8486C16.9919 67.0628 16.8369 67.3659 16.8369 67.7578C16.8369 68.0768 16.9417 68.332 17.1514 68.5234C17.3656 68.7103 17.6504 68.8037 18.0059 68.8037ZM24.5273 62.6035L24.5752 63.458C25.1221 62.7972 25.8398 62.4668 26.7285 62.4668C28.2689 62.4668 29.0527 63.3486 29.0801 65.1123V70H27.4189V65.208C27.4189 64.7386 27.3164 64.3923 27.1113 64.1689C26.9108 63.9411 26.5804 63.8271 26.1201 63.8271C25.4502 63.8271 24.9512 64.1302 24.623 64.7363V70H22.9619V62.6035H24.5273ZM2.93262 76.8057V78.6035H4.23828V79.834H2.93262V83.9629C2.93262 84.2454 2.9873 84.4505 3.09668 84.5781C3.21061 84.7012 3.41113 84.7627 3.69824 84.7627C3.88965 84.7627 4.08333 84.7399 4.2793 84.6943V85.9795C3.90104 86.0843 3.53646 86.1367 3.18555 86.1367C1.90951 86.1367 1.27148 85.4326 1.27148 84.0244V79.834H0.0546875V78.6035H1.27148V76.8057H2.93262ZM7.15039 79.4102C7.69271 78.7812 8.37858 78.4668 9.20801 78.4668C10.7848 78.4668 11.5846 79.3669 11.6074 81.167V86H9.94629V81.2285C9.94629 80.7181 9.83464 80.3581 9.61133 80.1484C9.39258 79.9342 9.06901 79.8271 8.64062 79.8271C7.97526 79.8271 7.47852 80.1234 7.15039 80.7158V86H5.48926V75.5H7.15039V79.4102ZM16.5498 86.1367C15.4971 86.1367 14.6426 85.8063 13.9863 85.1455C13.3346 84.4801 13.0088 83.596 13.0088 82.4932V82.2881C13.0088 81.5498 13.1501 80.8913 13.4326 80.3125C13.7197 79.7292 14.1208 79.2757 14.6357 78.9521C15.1507 78.6286 15.7249 78.4668 16.3584 78.4668C17.3656 78.4668 18.1426 78.7881 18.6895 79.4307C19.2409 80.0732 19.5166 80.9824 19.5166 82.1582V82.8281H14.6836C14.7337 83.4388 14.9365 83.9219 15.292 84.2773C15.652 84.6328 16.1032 84.8105 16.6455 84.8105C17.4066 84.8105 18.0264 84.5029 18.5049 83.8877L19.4004 84.7422C19.1042 85.1842 18.7077 85.5283 18.2109 85.7744C17.7188 86.016 17.165 86.1367 16.5498 86.1367ZM16.3516 79.7998C15.8958 79.7998 15.5267 79.9593 15.2441 80.2783C14.9661 80.5973 14.7884 81.0417 14.7109 81.6113H17.876V81.4883C17.8395 80.9323 17.6914 80.513 17.4316 80.2305C17.1719 79.9434 16.8118 79.7998 16.3516 79.7998ZM30.7754 82.377C30.7754 83.5208 30.5156 84.4346 29.9961 85.1182C29.4766 85.7972 28.7793 86.1367 27.9043 86.1367C27.0931 86.1367 26.4437 85.8701 25.9561 85.3369V88.8438H24.2949V78.6035H25.8262L25.8945 79.3555C26.3822 78.763 27.0452 78.4668 27.8838 78.4668C28.7861 78.4668 29.4925 78.804 30.0029 79.4785C30.5179 80.1484 30.7754 81.0804 30.7754 82.2744V82.377ZM29.1211 82.2334C29.1211 81.4951 28.973 80.9095 28.6768 80.4766C28.3851 80.0436 27.9658 79.8271 27.4189 79.8271C26.7399 79.8271 26.2523 80.1074 25.9561 80.668V83.9492C26.2568 84.5234 26.749 84.8105 27.4326 84.8105C27.9613 84.8105 28.3737 84.5986 28.6699 84.1748C28.9707 83.7464 29.1211 83.0993 29.1211 82.2334ZM36.0596 80.1211C35.8408 80.0846 35.6152 80.0664 35.3828 80.0664C34.6217 80.0664 34.109 80.3581 33.8447 80.9414V86H32.1836V78.6035H33.7695L33.8105 79.4307C34.2116 78.7881 34.7676 78.4668 35.4785 78.4668C35.7155 78.4668 35.9115 78.4987 36.0664 78.5625L36.0596 80.1211ZM38.876 86H37.2148V78.6035H38.876V86ZM37.1123 76.6826C37.1123 76.4274 37.1921 76.2155 37.3516 76.0469C37.5156 75.8783 37.748 75.7939 38.0488 75.7939C38.3496 75.7939 38.582 75.8783 38.7461 76.0469C38.9102 76.2155 38.9922 76.4274 38.9922 76.6826C38.9922 76.9333 38.9102 77.1429 38.7461 77.3115C38.582 77.4756 38.3496 77.5576 38.0488 77.5576C37.748 77.5576 37.5156 77.4756 37.3516 77.3115C37.1921 77.1429 37.1123 76.9333 37.1123 76.6826ZM42.2324 78.6035L42.2803 79.458C42.8271 78.7972 43.5449 78.4668 44.4336 78.4668C45.974 78.4668 46.7578 79.3486 46.7852 81.1123V86H45.124V81.208C45.124 80.7386 45.0215 80.3923 44.8164 80.1689C44.6159 79.9411 44.2855 79.8271 43.8252 79.8271C43.1553 79.8271 42.6562 80.1302 42.3281 80.7363V86H40.667V78.6035H42.2324ZM50.5654 76.8057V78.6035H51.8711V79.834H50.5654V83.9629C50.5654 84.2454 50.6201 84.4505 50.7295 84.5781C50.8434 84.7012 51.0439 84.7627 51.3311 84.7627C51.5225 84.7627 51.7161 84.7399 51.9121 84.6943V85.9795C51.5339 86.0843 51.1693 86.1367 50.8184 86.1367C49.5423 86.1367 48.9043 85.4326 48.9043 84.0244V79.834H47.6875V78.6035H48.9043V76.8057H50.5654ZM56.4033 86.1367C55.3506 86.1367 54.4961 85.8063 53.8398 85.1455C53.1882 84.4801 52.8623 83.596 52.8623 82.4932V82.2881C52.8623 81.5498 53.0036 80.8913 53.2861 80.3125C53.5732 79.7292 53.9743 79.2757 54.4893 78.9521C55.0042 78.6286 55.5785 78.4668 56.2119 78.4668C57.2191 78.4668 57.9961 78.7881 58.543 79.4307C59.0944 80.0732 59.3701 80.9824 59.3701 82.1582V82.8281H54.5371C54.5872 83.4388 54.79 83.9219 55.1455 84.2773C55.5055 84.6328 55.9567 84.8105 56.499 84.8105C57.2601 84.8105 57.8799 84.5029 58.3584 83.8877L59.2539 84.7422C58.9577 85.1842 58.5612 85.5283 58.0645 85.7744C57.5723 86.016 57.0186 86.1367 56.4033 86.1367ZM56.2051 79.7998C55.7493 79.7998 55.3802 79.9593 55.0977 80.2783C54.8197 80.5973 54.6419 81.0417 54.5645 81.6113H57.7295V81.4883C57.693 80.9323 57.5449 80.513 57.2852 80.2305C57.0254 79.9434 56.6654 79.7998 56.2051 79.7998ZM60.3545 82.2471C60.3545 81.1077 60.6188 80.194 61.1475 79.5059C61.6761 78.8132 62.3848 78.4668 63.2734 78.4668C64.0573 78.4668 64.6908 78.7402 65.1738 79.2871V75.5H66.835V86H65.3311L65.249 85.2344C64.7523 85.8359 64.0892 86.1367 63.2598 86.1367C62.3939 86.1367 61.6921 85.7881 61.1543 85.0908C60.6211 84.3936 60.3545 83.4456 60.3545 82.2471ZM62.0156 82.3906C62.0156 83.1426 62.1592 83.7305 62.4463 84.1543C62.738 84.5736 63.1504 84.7832 63.6836 84.7832C64.3626 84.7832 64.8594 84.4801 65.1738 83.874V80.7158C64.8685 80.1234 64.3763 79.8271 63.6973 79.8271C63.1595 79.8271 62.7448 80.0413 62.4531 80.4697C62.1615 80.8936 62.0156 81.5339 62.0156 82.3906ZM80.124 81.2832C80.124 82.2266 79.9736 83.0446 79.6729 83.7373C79.3766 84.4255 78.9596 84.9723 78.4219 85.3779L80.1309 86.7109L79.0098 87.7227L76.8906 86.0479C76.6126 86.1071 76.3141 86.1367 75.9951 86.1367C75.193 86.1367 74.4753 85.9408 73.8418 85.5488C73.2129 85.1523 72.7253 84.5895 72.3789 83.8604C72.0371 83.1312 71.8639 82.2904 71.8594 81.3379V80.7773C71.8594 79.8066 72.0303 78.9499 72.3721 78.207C72.7184 77.4642 73.2038 76.8968 73.8281 76.5049C74.457 76.1084 75.1748 75.9102 75.9814 75.9102C76.8018 75.9102 77.5241 76.1061 78.1484 76.498C78.7773 76.8854 79.2627 77.446 79.6045 78.1797C79.9463 78.9089 80.1195 79.7588 80.124 80.7295V81.2832ZM78.3877 80.7637C78.3877 79.6426 78.1781 78.7926 77.7588 78.2139C77.3395 77.6351 76.7471 77.3457 75.9814 77.3457C75.2386 77.3457 74.6553 77.6396 74.2314 78.2275C73.8122 78.8109 73.598 79.6357 73.5889 80.7021V81.2832C73.5889 82.3587 73.7985 83.1995 74.2178 83.8057C74.6416 84.4118 75.234 84.7148 75.9951 84.7148C76.7653 84.7148 77.3555 84.4232 77.7656 83.8398C78.1803 83.2565 78.3877 82.4043 78.3877 81.2832V80.7637ZM85.5381 82.165H83.6104V86H81.8809V76.0469H85.3809C86.5293 76.0469 87.4157 76.3044 88.04 76.8193C88.6644 77.3343 88.9766 78.0794 88.9766 79.0547C88.9766 79.7201 88.8148 80.2783 88.4912 80.7295C88.1722 81.1761 87.7256 81.5202 87.1514 81.7617L89.3867 85.9111V86H87.5342L85.5381 82.165ZM83.6104 80.7773H85.3877C85.971 80.7773 86.4268 80.6315 86.7549 80.3398C87.083 80.0436 87.2471 79.6403 87.2471 79.1299C87.2471 78.5967 87.0944 78.1842 86.7891 77.8926C86.4883 77.6009 86.0371 77.4505 85.4355 77.4414H83.6104V80.7773ZM96.9814 84.8105C97.3962 84.8105 97.7402 84.6898 98.0137 84.4482C98.2871 84.2067 98.4329 83.9082 98.4512 83.5527H100.017C99.9984 84.013 99.8548 84.4437 99.5859 84.8447C99.3171 85.2412 98.9525 85.5557 98.4922 85.7881C98.0319 86.0205 97.5352 86.1367 97.002 86.1367C95.9674 86.1367 95.1471 85.8018 94.541 85.1318C93.9349 84.4619 93.6318 83.5368 93.6318 82.3564V82.1855C93.6318 81.0599 93.9326 80.1598 94.5342 79.4854C95.1357 78.8063 95.9561 78.4668 96.9951 78.4668C97.8747 78.4668 98.5902 78.7243 99.1416 79.2393C99.6976 79.7497 99.9893 80.4219 100.017 81.2559H98.4512C98.4329 80.832 98.2871 80.4834 98.0137 80.21C97.7448 79.9365 97.4007 79.7998 96.9814 79.7998C96.4437 79.7998 96.029 79.9958 95.7373 80.3877C95.4456 80.7751 95.2975 81.3652 95.293 82.1582V82.4248C95.293 83.2269 95.4365 83.8262 95.7236 84.2227C96.0153 84.6146 96.4346 84.8105 96.9814 84.8105ZM100.96 82.2334C100.96 81.5088 101.104 80.8571 101.391 80.2783C101.678 79.695 102.081 79.2484 102.601 78.9385C103.12 78.624 103.717 78.4668 104.392 78.4668C105.39 78.4668 106.199 78.7881 106.818 79.4307C107.443 80.0732 107.78 80.9255 107.83 81.9873L107.837 82.377C107.837 83.1061 107.696 83.7578 107.413 84.332C107.135 84.9062 106.734 85.3506 106.21 85.665C105.69 85.9795 105.089 86.1367 104.405 86.1367C103.362 86.1367 102.525 85.7904 101.896 85.0977C101.272 84.4004 100.96 83.473 100.96 82.3154V82.2334ZM102.621 82.377C102.621 83.138 102.778 83.735 103.093 84.168C103.407 84.5964 103.845 84.8105 104.405 84.8105C104.966 84.8105 105.401 84.5918 105.711 84.1543C106.025 83.7168 106.183 83.0765 106.183 82.2334C106.183 81.486 106.021 80.8936 105.697 80.4561C105.378 80.0186 104.943 79.7998 104.392 79.7998C103.849 79.7998 103.419 80.0163 103.1 80.4492C102.781 80.8776 102.621 81.5202 102.621 82.377ZM108.931 82.2471C108.931 81.1077 109.195 80.194 109.724 79.5059C110.252 78.8132 110.961 78.4668 111.85 78.4668C112.633 78.4668 113.267 78.7402 113.75 79.2871V75.5H115.411V86H113.907L113.825 85.2344C113.328 85.8359 112.665 86.1367 111.836 86.1367C110.97 86.1367 110.268 85.7881 109.73 85.0908C109.197 84.3936 108.931 83.4456 108.931 82.2471ZM110.592 82.3906C110.592 83.1426 110.735 83.7305 111.022 84.1543C111.314 84.5736 111.727 84.7832 112.26 84.7832C112.939 84.7832 113.436 84.4801 113.75 83.874V80.7158C113.445 80.1234 112.952 79.8271 112.273 79.8271C111.736 79.8271 111.321 80.0413 111.029 80.4697C110.738 80.8936 110.592 81.5339 110.592 82.3906ZM120.401 86.1367C119.349 86.1367 118.494 85.8063 117.838 85.1455C117.186 84.4801 116.86 83.596 116.86 82.4932V82.2881C116.86 81.5498 117.002 80.8913 117.284 80.3125C117.571 79.7292 117.972 79.2757 118.487 78.9521C119.002 78.6286 119.576 78.4668 120.21 78.4668C121.217 78.4668 121.994 78.7881 122.541 79.4307C123.092 80.0732 123.368 80.9824 123.368 82.1582V82.8281H118.535C118.585 83.4388 118.788 83.9219 119.144 84.2773C119.504 84.6328 119.955 84.8105 120.497 84.8105C121.258 84.8105 121.878 84.5029 122.356 83.8877L123.252 84.7422C122.956 85.1842 122.559 85.5283 122.062 85.7744C121.57 86.016 121.017 86.1367 120.401 86.1367ZM120.203 79.7998C119.747 79.7998 119.378 79.9593 119.096 80.2783C118.818 80.5973 118.64 81.0417 118.562 81.6113H121.728V81.4883C121.691 80.9323 121.543 80.513 121.283 80.2305C121.023 79.9434 120.663 79.7998 120.203 79.7998ZM124.899 88.2422L124.004 87.709C124.268 87.2943 124.448 86.932 124.544 86.6221C124.644 86.3167 124.697 86.0046 124.701 85.6855V84.3936H126.198L126.191 85.5898C126.187 86.0729 126.064 86.556 125.822 87.0391C125.585 87.5267 125.278 87.9277 124.899 88.2422ZM133.308 76.8057V78.6035H134.613V79.834H133.308V83.9629C133.308 84.2454 133.362 84.4505 133.472 84.5781C133.586 84.7012 133.786 84.7627 134.073 84.7627C134.265 84.7627 134.458 84.7399 134.654 84.6943V85.9795C134.276 86.0843 133.911 86.1367 133.561 86.1367C132.285 86.1367 131.646 85.4326 131.646 84.0244V79.834H130.43V78.6035H131.646V76.8057H133.308ZM137.525 79.4102C138.068 78.7812 138.754 78.4668 139.583 78.4668C141.16 78.4668 141.96 79.3669 141.982 81.167V86H140.321V81.2285C140.321 80.7181 140.21 80.3581 139.986 80.1484C139.768 79.9342 139.444 79.8271 139.016 79.8271C138.35 79.8271 137.854 80.1234 137.525 80.7158V86H135.864V75.5H137.525V79.4102ZM145.435 86H143.773V78.6035H145.435V86ZM143.671 76.6826C143.671 76.4274 143.751 76.2155 143.91 76.0469C144.074 75.8783 144.307 75.7939 144.607 75.7939C144.908 75.7939 145.141 75.8783 145.305 76.0469C145.469 76.2155 145.551 76.4274 145.551 76.6826C145.551 76.9333 145.469 77.1429 145.305 77.3115C145.141 77.4756 144.908 77.5576 144.607 77.5576C144.307 77.5576 144.074 77.4756 143.91 77.3115C143.751 77.1429 143.671 76.9333 143.671 76.6826ZM151.396 83.9902C151.396 83.694 151.272 83.4684 151.026 83.3135C150.785 83.1585 150.382 83.0218 149.816 82.9033C149.251 82.7848 148.78 82.6344 148.401 82.4521C147.572 82.0511 147.157 81.4701 147.157 80.709C147.157 80.071 147.426 79.5378 147.964 79.1094C148.502 78.681 149.185 78.4668 150.015 78.4668C150.899 78.4668 151.612 78.6855 152.154 79.123C152.701 79.5605 152.975 80.1279 152.975 80.8252H151.313C151.313 80.5062 151.195 80.2419 150.958 80.0322C150.721 79.818 150.407 79.7109 150.015 79.7109C149.65 79.7109 149.352 79.7952 149.119 79.9639C148.891 80.1325 148.777 80.3581 148.777 80.6406C148.777 80.8958 148.884 81.0941 149.099 81.2354C149.313 81.3766 149.746 81.5202 150.397 81.666C151.049 81.8073 151.56 81.9782 151.929 82.1787C152.302 82.3747 152.578 82.6117 152.756 82.8896C152.938 83.1676 153.029 83.5049 153.029 83.9014C153.029 84.5667 152.754 85.1068 152.202 85.5215C151.651 85.9316 150.928 86.1367 150.035 86.1367C149.429 86.1367 148.889 86.0273 148.415 85.8086C147.941 85.5898 147.572 85.2891 147.308 84.9062C147.043 84.5234 146.911 84.111 146.911 83.6689H148.524C148.547 84.0609 148.695 84.3639 148.969 84.5781C149.242 84.7878 149.604 84.8926 150.056 84.8926C150.493 84.8926 150.826 84.8105 151.054 84.6465C151.282 84.4779 151.396 84.2591 151.396 83.9902ZM164.466 83.71L165.642 78.6035H167.262L165.245 86H163.878L162.292 80.9209L160.733 86H159.366L157.343 78.6035H158.963L160.159 83.6553L161.677 78.6035H162.928L164.466 83.71ZM170.14 86H168.479V78.6035H170.14V86ZM168.376 76.6826C168.376 76.4274 168.456 76.2155 168.615 76.0469C168.779 75.8783 169.012 75.7939 169.312 75.7939C169.613 75.7939 169.846 75.8783 170.01 76.0469C170.174 76.2155 170.256 76.4274 170.256 76.6826C170.256 76.9333 170.174 77.1429 170.01 77.3115C169.846 77.4756 169.613 77.5576 169.312 77.5576C169.012 77.5576 168.779 77.4756 168.615 77.3115C168.456 77.1429 168.376 76.9333 168.376 76.6826ZM173.722 86H172.061V75.5H173.722V86ZM177.304 86H175.643V75.5H177.304V86ZM184.372 86H182.711V75.5H184.372V86ZM189.444 86.1367C188.392 86.1367 187.537 85.8063 186.881 85.1455C186.229 84.4801 185.903 83.596 185.903 82.4932V82.2881C185.903 81.5498 186.045 80.8913 186.327 80.3125C186.614 79.7292 187.015 79.2757 187.53 78.9521C188.045 78.6286 188.619 78.4668 189.253 78.4668C190.26 78.4668 191.037 78.7881 191.584 79.4307C192.135 80.0732 192.411 80.9824 192.411 82.1582V82.8281H187.578C187.628 83.4388 187.831 83.9219 188.187 84.2773C188.547 84.6328 188.998 84.8105 189.54 84.8105C190.301 84.8105 190.921 84.5029 191.399 83.8877L192.295 84.7422C191.999 85.1842 191.602 85.5283 191.105 85.7744C190.613 86.016 190.06 86.1367 189.444 86.1367ZM189.246 79.7998C188.79 79.7998 188.421 79.9593 188.139 80.2783C187.861 80.5973 187.683 81.0417 187.605 81.6113H190.771V81.4883C190.734 80.9323 190.586 80.513 190.326 80.2305C190.066 79.9434 189.706 79.7998 189.246 79.7998ZM198.126 86C198.053 85.8587 197.989 85.6286 197.935 85.3096C197.406 85.861 196.759 86.1367 195.993 86.1367C195.25 86.1367 194.644 85.9248 194.175 85.501C193.705 85.0771 193.471 84.5531 193.471 83.9287C193.471 83.1403 193.762 82.5365 194.346 82.1172C194.934 81.6934 195.772 81.4814 196.861 81.4814H197.88V80.9961C197.88 80.6133 197.773 80.3079 197.559 80.0801C197.344 79.8477 197.019 79.7314 196.581 79.7314C196.203 79.7314 195.893 79.8271 195.651 80.0186C195.41 80.2054 195.289 80.4447 195.289 80.7363H193.628C193.628 80.3307 193.762 79.9525 194.031 79.6016C194.3 79.2461 194.665 78.9681 195.125 78.7676C195.59 78.5671 196.107 78.4668 196.677 78.4668C197.543 78.4668 198.233 78.6855 198.748 79.123C199.263 79.556 199.527 80.1667 199.541 80.9551V84.291C199.541 84.9564 199.634 85.4873 199.821 85.8838V86H198.126ZM196.301 84.8037C196.629 84.8037 196.937 84.724 197.224 84.5645C197.515 84.4049 197.734 84.1908 197.88 83.9219V82.5273H196.984C196.369 82.5273 195.907 82.6344 195.597 82.8486C195.287 83.0628 195.132 83.3659 195.132 83.7578C195.132 84.0768 195.237 84.332 195.446 84.5234C195.66 84.7103 195.945 84.8037 196.301 84.8037ZM200.97 82.2471C200.97 81.1077 201.234 80.194 201.763 79.5059C202.291 78.8132 203 78.4668 203.889 78.4668C204.673 78.4668 205.306 78.7402 205.789 79.2871V75.5H207.45V86H205.946L205.864 85.2344C205.368 85.8359 204.704 86.1367 203.875 86.1367C203.009 86.1367 202.307 85.7881 201.77 85.0908C201.236 84.3936 200.97 83.4456 200.97 82.2471ZM202.631 82.3906C202.631 83.1426 202.774 83.7305 203.062 84.1543C203.353 84.5736 203.766 84.7832 204.299 84.7832C204.978 84.7832 205.475 84.4801 205.789 83.874V80.7158C205.484 80.1234 204.992 79.8271 204.312 79.8271C203.775 79.8271 203.36 80.0413 203.068 80.4697C202.777 80.8936 202.631 81.5339 202.631 82.3906ZM3.43848 99.6211L4.94238 94.6035H6.71289L3.77344 103.121C3.32227 104.365 2.55664 104.987 1.47656 104.987C1.23503 104.987 0.968424 104.946 0.676758 104.864V103.579L0.991211 103.6C1.41048 103.6 1.72493 103.522 1.93457 103.367C2.14876 103.217 2.31738 102.962 2.44043 102.602L2.67969 101.966L0.0820312 94.6035H1.87305L3.43848 99.6211ZM7.25293 98.2334C7.25293 97.5088 7.39648 96.8571 7.68359 96.2783C7.9707 95.695 8.37402 95.2484 8.89355 94.9385C9.41309 94.624 10.0101 94.4668 10.6846 94.4668C11.6826 94.4668 12.4915 94.7881 13.1113 95.4307C13.7357 96.0732 14.0729 96.9255 14.123 97.9873L14.1299 98.377C14.1299 99.1061 13.9886 99.7578 13.7061 100.332C13.4281 100.906 13.027 101.351 12.5029 101.665C11.9834 101.979 11.3818 102.137 10.6982 102.137C9.65462 102.137 8.81836 101.79 8.18945 101.098C7.5651 100.4 7.25293 99.473 7.25293 98.3154V98.2334ZM8.91406 98.377C8.91406 99.138 9.07129 99.735 9.38574 100.168C9.7002 100.596 10.1377 100.811 10.6982 100.811C11.2588 100.811 11.694 100.592 12.0039 100.154C12.3184 99.7168 12.4756 99.0765 12.4756 98.2334C12.4756 97.486 12.3138 96.8936 11.9902 96.4561C11.6712 96.0186 11.236 95.7998 10.6846 95.7998C10.1423 95.7998 9.71159 96.0163 9.39258 96.4492C9.07357 96.8776 8.91406 97.5202 8.91406 98.377ZM20.0156 101.275C19.528 101.85 18.8353 102.137 17.9375 102.137C17.1354 102.137 16.527 101.902 16.1123 101.433C15.7021 100.963 15.4971 100.284 15.4971 99.3955V94.6035H17.1582V99.375C17.1582 100.314 17.5479 100.783 18.3271 100.783C19.1338 100.783 19.6784 100.494 19.9609 99.915V94.6035H21.6221V102H20.0566L20.0156 101.275ZM28.8818 92.8057V94.6035H30.1875V95.834H28.8818V99.9629C28.8818 100.245 28.9365 100.451 29.0459 100.578C29.1598 100.701 29.3604 100.763 29.6475 100.763C29.8389 100.763 30.0326 100.74 30.2285 100.694V101.979C29.8503 102.084 29.4857 102.137 29.1348 102.137C27.8587 102.137 27.2207 101.433 27.2207 100.024V95.834H26.0039V94.6035H27.2207V92.8057H28.8818ZM30.9463 98.2334C30.9463 97.5088 31.0898 96.8571 31.377 96.2783C31.6641 95.695 32.0674 95.2484 32.5869 94.9385C33.1064 94.624 33.7035 94.4668 34.3779 94.4668C35.376 94.4668 36.1849 94.7881 36.8047 95.4307C37.429 96.0732 37.7663 96.9255 37.8164 97.9873L37.8232 98.377C37.8232 99.1061 37.682 99.7578 37.3994 100.332C37.1214 100.906 36.7204 101.351 36.1963 101.665C35.6768 101.979 35.0752 102.137 34.3916 102.137C33.348 102.137 32.5117 101.79 31.8828 101.098C31.2585 100.4 30.9463 99.473 30.9463 98.3154V98.2334ZM32.6074 98.377C32.6074 99.138 32.7646 99.735 33.0791 100.168C33.3936 100.596 33.8311 100.811 34.3916 100.811C34.9521 100.811 35.3874 100.592 35.6973 100.154C36.0117 99.7168 36.1689 99.0765 36.1689 98.2334C36.1689 97.486 36.0072 96.8936 35.6836 96.4561C35.3646 96.0186 34.9294 95.7998 34.3779 95.7998C33.8356 95.7998 33.4049 96.0163 33.0859 96.4492C32.7669 96.8776 32.6074 97.5202 32.6074 98.377ZM44.7959 92.8057V94.6035H46.1016V95.834H44.7959V99.9629C44.7959 100.245 44.8506 100.451 44.96 100.578C45.0739 100.701 45.2744 100.763 45.5615 100.763C45.7529 100.763 45.9466 100.74 46.1426 100.694V101.979C45.7643 102.084 45.3997 102.137 45.0488 102.137C43.7728 102.137 43.1348 101.433 43.1348 100.024V95.834H41.918V94.6035H43.1348V92.8057H44.7959ZM49.0137 95.4102C49.556 94.7812 50.2419 94.4668 51.0713 94.4668C52.6481 94.4668 53.4479 95.3669 53.4707 97.167V102H51.8096V97.2285C51.8096 96.7181 51.6979 96.3581 51.4746 96.1484C51.2559 95.9342 50.9323 95.8271 50.5039 95.8271C49.8385 95.8271 49.3418 96.1234 49.0137 96.7158V102H47.3525V91.5H49.0137V95.4102ZM56.9229 102H55.2617V94.6035H56.9229V102ZM55.1592 92.6826C55.1592 92.4274 55.2389 92.2155 55.3984 92.0469C55.5625 91.8783 55.7949 91.7939 56.0957 91.7939C56.3965 91.7939 56.6289 91.8783 56.793 92.0469C56.957 92.2155 57.0391 92.4274 57.0391 92.6826C57.0391 92.9333 56.957 93.1429 56.793 93.3115C56.6289 93.4756 56.3965 93.5576 56.0957 93.5576C55.7949 93.5576 55.5625 93.4756 55.3984 93.3115C55.2389 93.1429 55.1592 92.9333 55.1592 92.6826ZM62.8838 99.9902C62.8838 99.694 62.7607 99.4684 62.5146 99.3135C62.2731 99.1585 61.8698 99.0218 61.3047 98.9033C60.7396 98.7848 60.2679 98.6344 59.8896 98.4521C59.0602 98.0511 58.6455 97.4701 58.6455 96.709C58.6455 96.071 58.9144 95.5378 59.4521 95.1094C59.9899 94.681 60.6735 94.4668 61.5029 94.4668C62.387 94.4668 63.1003 94.6855 63.6426 95.123C64.1895 95.5605 64.4629 96.1279 64.4629 96.8252H62.8018C62.8018 96.5062 62.6833 96.2419 62.4463 96.0322C62.2093 95.818 61.8949 95.7109 61.5029 95.7109C61.1383 95.7109 60.8398 95.7952 60.6074 95.9639C60.3796 96.1325 60.2656 96.3581 60.2656 96.6406C60.2656 96.8958 60.3727 97.0941 60.5869 97.2354C60.8011 97.3766 61.234 97.5202 61.8857 97.666C62.5374 97.8073 63.0479 97.9782 63.417 98.1787C63.7907 98.3747 64.0664 98.6117 64.2441 98.8896C64.4264 99.1676 64.5176 99.5049 64.5176 99.9014C64.5176 100.567 64.2419 101.107 63.6904 101.521C63.139 101.932 62.4167 102.137 61.5234 102.137C60.9173 102.137 60.3773 102.027 59.9033 101.809C59.4294 101.59 59.0602 101.289 58.7959 100.906C58.5316 100.523 58.3994 100.111 58.3994 99.6689H60.0127C60.0355 100.061 60.1836 100.364 60.457 100.578C60.7305 100.788 61.0928 100.893 61.5439 100.893C61.9814 100.893 62.3141 100.811 62.542 100.646C62.7699 100.478 62.8838 100.259 62.8838 99.9902ZM75.9336 98.377C75.9336 99.5208 75.6738 100.435 75.1543 101.118C74.6348 101.797 73.9375 102.137 73.0625 102.137C72.2513 102.137 71.6019 101.87 71.1143 101.337V104.844H69.4531V94.6035H70.9844L71.0527 95.3555C71.5404 94.763 72.2035 94.4668 73.042 94.4668C73.9443 94.4668 74.6507 94.804 75.1611 95.4785C75.6761 96.1484 75.9336 97.0804 75.9336 98.2744V98.377ZM74.2793 98.2334C74.2793 97.4951 74.1312 96.9095 73.835 96.4766C73.5433 96.0436 73.124 95.8271 72.5771 95.8271C71.8981 95.8271 71.4105 96.1074 71.1143 96.668V99.9492C71.415 100.523 71.9072 100.811 72.5908 100.811C73.1195 100.811 73.5319 100.599 73.8281 100.175C74.1289 99.7464 74.2793 99.0993 74.2793 98.2334ZM81.7646 102C81.6917 101.859 81.6279 101.629 81.5732 101.31C81.0446 101.861 80.3975 102.137 79.6318 102.137C78.889 102.137 78.2829 101.925 77.8135 101.501C77.3441 101.077 77.1094 100.553 77.1094 99.9287C77.1094 99.1403 77.401 98.5365 77.9844 98.1172C78.5723 97.6934 79.4108 97.4814 80.5 97.4814H81.5186V96.9961C81.5186 96.6133 81.4115 96.3079 81.1973 96.0801C80.9831 95.8477 80.6572 95.7314 80.2197 95.7314C79.8415 95.7314 79.5316 95.8271 79.29 96.0186C79.0485 96.2054 78.9277 96.4447 78.9277 96.7363H77.2666C77.2666 96.3307 77.401 95.9525 77.6699 95.6016C77.9388 95.2461 78.3034 94.9681 78.7637 94.7676C79.2285 94.5671 79.7458 94.4668 80.3154 94.4668C81.1813 94.4668 81.8717 94.6855 82.3867 95.123C82.9017 95.556 83.166 96.1667 83.1797 96.9551V100.291C83.1797 100.956 83.2731 101.487 83.46 101.884V102H81.7646ZM79.9395 100.804C80.2676 100.804 80.5752 100.724 80.8623 100.564C81.154 100.405 81.3727 100.191 81.5186 99.9219V98.5273H80.623C80.0078 98.5273 79.5452 98.6344 79.2354 98.8486C78.9255 99.0628 78.7705 99.3659 78.7705 99.7578C78.7705 100.077 78.8753 100.332 79.085 100.523C79.2992 100.71 79.584 100.804 79.9395 100.804ZM84.6289 98.2471C84.6289 97.0986 84.8978 96.1826 85.4355 95.499C85.9779 94.8109 86.6956 94.4668 87.5889 94.4668C88.432 94.4668 89.0951 94.7607 89.5781 95.3486L89.6533 94.6035H91.1504V101.774C91.1504 102.745 90.8473 103.511 90.2412 104.071C89.6396 104.632 88.8262 104.912 87.8008 104.912C87.2585 104.912 86.7275 104.798 86.208 104.57C85.693 104.347 85.3011 104.053 85.0322 103.688L85.8184 102.69C86.3288 103.297 86.9577 103.6 87.7051 103.6C88.2565 103.6 88.6917 103.449 89.0107 103.148C89.3298 102.852 89.4893 102.415 89.4893 101.836V101.337C89.0107 101.87 88.3727 102.137 87.5752 102.137C86.7093 102.137 86.0007 101.793 85.4492 101.104C84.9023 100.416 84.6289 99.4639 84.6289 98.2471ZM86.2832 98.3906C86.2832 99.1335 86.4336 99.7191 86.7344 100.147C87.0397 100.571 87.4613 100.783 87.999 100.783C88.6689 100.783 89.1657 100.496 89.4893 99.9219V96.668C89.1748 96.1074 88.6826 95.8271 88.0127 95.8271C87.4658 95.8271 87.0397 96.0436 86.7344 96.4766C86.4336 96.9095 86.2832 97.5475 86.2832 98.3906ZM96.1201 102.137C95.0674 102.137 94.2129 101.806 93.5566 101.146C92.9049 100.48 92.5791 99.596 92.5791 98.4932V98.2881C92.5791 97.5498 92.7204 96.8913 93.0029 96.3125C93.29 95.7292 93.6911 95.2757 94.2061 94.9521C94.721 94.6286 95.2952 94.4668 95.9287 94.4668C96.9359 94.4668 97.7129 94.7881 98.2598 95.4307C98.8112 96.0732 99.0869 96.9824 99.0869 98.1582V98.8281H94.2539C94.304 99.4388 94.5068 99.9219 94.8623 100.277C95.2223 100.633 95.6735 100.811 96.2158 100.811C96.9769 100.811 97.5967 100.503 98.0752 99.8877L98.9707 100.742C98.6745 101.184 98.278 101.528 97.7812 101.774C97.2891 102.016 96.7354 102.137 96.1201 102.137ZM95.9219 95.7998C95.4661 95.7998 95.097 95.9593 94.8145 96.2783C94.5365 96.5973 94.3587 97.0417 94.2812 97.6113H97.4463V97.4883C97.4098 96.9323 97.2617 96.513 97.002 96.2305C96.7422 95.9434 96.3822 95.7998 95.9219 95.7998ZM108.015 99.9902C108.015 99.694 107.892 99.4684 107.646 99.3135C107.404 99.1585 107.001 99.0218 106.436 98.9033C105.87 98.7848 105.399 98.6344 105.021 98.4521C104.191 98.0511 103.776 97.4701 103.776 96.709C103.776 96.071 104.045 95.5378 104.583 95.1094C105.121 94.681 105.804 94.4668 106.634 94.4668C107.518 94.4668 108.231 94.6855 108.773 95.123C109.32 95.5605 109.594 96.1279 109.594 96.8252H107.933C107.933 96.5062 107.814 96.2419 107.577 96.0322C107.34 95.818 107.026 95.7109 106.634 95.7109C106.269 95.7109 105.971 95.7952 105.738 95.9639C105.51 96.1325 105.396 96.3581 105.396 96.6406C105.396 96.8958 105.504 97.0941 105.718 97.2354C105.932 97.3766 106.365 97.5202 107.017 97.666C107.668 97.8073 108.179 97.9782 108.548 98.1787C108.922 98.3747 109.197 98.6117 109.375 98.8896C109.557 99.1676 109.648 99.5049 109.648 99.9014C109.648 100.567 109.373 101.107 108.821 101.521C108.27 101.932 107.548 102.137 106.654 102.137C106.048 102.137 105.508 102.027 105.034 101.809C104.56 101.59 104.191 101.289 103.927 100.906C103.662 100.523 103.53 100.111 103.53 99.6689H105.144C105.166 100.061 105.314 100.364 105.588 100.578C105.861 100.788 106.224 100.893 106.675 100.893C107.112 100.893 107.445 100.811 107.673 100.646C107.901 100.478 108.015 100.259 108.015 99.9902ZM112.738 95.4102C113.281 94.7812 113.966 94.4668 114.796 94.4668C116.373 94.4668 117.173 95.3669 117.195 97.167V102H115.534V97.2285C115.534 96.7181 115.423 96.3581 115.199 96.1484C114.98 95.9342 114.657 95.8271 114.229 95.8271C113.563 95.8271 113.066 96.1234 112.738 96.7158V102H111.077V91.5H112.738V95.4102ZM118.569 98.2334C118.569 97.5088 118.713 96.8571 119 96.2783C119.287 95.695 119.69 95.2484 120.21 94.9385C120.729 94.624 121.326 94.4668 122.001 94.4668C122.999 94.4668 123.808 94.7881 124.428 95.4307C125.052 96.0732 125.389 96.9255 125.439 97.9873L125.446 98.377C125.446 99.1061 125.305 99.7578 125.022 100.332C124.744 100.906 124.343 101.351 123.819 101.665C123.3 101.979 122.698 102.137 122.015 102.137C120.971 102.137 120.135 101.79 119.506 101.098C118.882 100.4 118.569 99.473 118.569 98.3154V98.2334ZM120.23 98.377C120.23 99.138 120.388 99.735 120.702 100.168C121.017 100.596 121.454 100.811 122.015 100.811C122.575 100.811 123.01 100.592 123.32 100.154C123.635 99.7168 123.792 99.0765 123.792 98.2334C123.792 97.486 123.63 96.8936 123.307 96.4561C122.988 96.0186 122.552 95.7998 122.001 95.7998C121.459 95.7998 121.028 96.0163 120.709 96.4492C120.39 96.8776 120.23 97.5202 120.23 98.377ZM131.332 101.275C130.844 101.85 130.152 102.137 129.254 102.137C128.452 102.137 127.843 101.902 127.429 101.433C127.019 100.963 126.813 100.284 126.813 99.3955V94.6035H128.475V99.375C128.475 100.314 128.864 100.783 129.644 100.783C130.45 100.783 130.995 100.494 131.277 99.915V94.6035H132.938V102H131.373L131.332 101.275ZM136.397 102H134.736V91.5H136.397V102ZM137.901 98.2471C137.901 97.1077 138.166 96.194 138.694 95.5059C139.223 94.8132 139.932 94.4668 140.82 94.4668C141.604 94.4668 142.238 94.7402 142.721 95.2871V91.5H144.382V102H142.878L142.796 101.234C142.299 101.836 141.636 102.137 140.807 102.137C139.941 102.137 139.239 101.788 138.701 101.091C138.168 100.394 137.901 99.4456 137.901 98.2471ZM139.562 98.3906C139.562 99.1426 139.706 99.7305 139.993 100.154C140.285 100.574 140.697 100.783 141.23 100.783C141.91 100.783 142.406 100.48 142.721 99.874V96.7158C142.415 96.1234 141.923 95.8271 141.244 95.8271C140.706 95.8271 140.292 96.0413 140 96.4697C139.708 96.8936 139.562 97.5339 139.562 98.3906ZM152.188 99.6211L153.692 94.6035H155.463L152.523 103.121C152.072 104.365 151.307 104.987 150.227 104.987C149.985 104.987 149.718 104.946 149.427 104.864V103.579L149.741 103.6C150.16 103.6 150.475 103.522 150.685 103.367C150.899 103.217 151.067 102.962 151.19 102.602L151.43 101.966L148.832 94.6035H150.623L152.188 99.6211ZM156.003 98.2334C156.003 97.5088 156.146 96.8571 156.434 96.2783C156.721 95.695 157.124 95.2484 157.644 94.9385C158.163 94.624 158.76 94.4668 159.435 94.4668C160.433 94.4668 161.242 94.7881 161.861 95.4307C162.486 96.0732 162.823 96.9255 162.873 97.9873L162.88 98.377C162.88 99.1061 162.739 99.7578 162.456 100.332C162.178 100.906 161.777 101.351 161.253 101.665C160.733 101.979 160.132 102.137 159.448 102.137C158.405 102.137 157.568 101.79 156.939 101.098C156.315 100.4 156.003 99.473 156.003 98.3154V98.2334ZM157.664 98.377C157.664 99.138 157.821 99.735 158.136 100.168C158.45 100.596 158.888 100.811 159.448 100.811C160.009 100.811 160.444 100.592 160.754 100.154C161.068 99.7168 161.226 99.0765 161.226 98.2334C161.226 97.486 161.064 96.8936 160.74 96.4561C160.421 96.0186 159.986 95.7998 159.435 95.7998C158.892 95.7998 158.462 96.0163 158.143 96.4492C157.824 96.8776 157.664 97.5202 157.664 98.377ZM168.766 101.275C168.278 101.85 167.585 102.137 166.688 102.137C165.885 102.137 165.277 101.902 164.862 101.433C164.452 100.963 164.247 100.284 164.247 99.3955V94.6035H165.908V99.375C165.908 100.314 166.298 100.783 167.077 100.783C167.884 100.783 168.428 100.494 168.711 99.915V94.6035H170.372V102H168.807L168.766 101.275ZM177.092 94.6035L177.14 95.458C177.687 94.7972 178.404 94.4668 179.293 94.4668C180.833 94.4668 181.617 95.3486 181.645 97.1123V102H179.983V97.208C179.983 96.7386 179.881 96.3923 179.676 96.1689C179.475 95.9411 179.145 95.8271 178.685 95.8271C178.015 95.8271 177.516 96.1302 177.188 96.7363V102H175.526V94.6035H177.092ZM186.601 102.137C185.548 102.137 184.693 101.806 184.037 101.146C183.385 100.48 183.06 99.596 183.06 98.4932V98.2881C183.06 97.5498 183.201 96.8913 183.483 96.3125C183.771 95.7292 184.172 95.2757 184.687 94.9521C185.201 94.6286 185.776 94.4668 186.409 94.4668C187.416 94.4668 188.193 94.7881 188.74 95.4307C189.292 96.0732 189.567 96.9824 189.567 98.1582V98.8281H184.734C184.785 99.4388 184.987 99.9219 185.343 100.277C185.703 100.633 186.154 100.811 186.696 100.811C187.457 100.811 188.077 100.503 188.556 99.8877L189.451 100.742C189.155 101.184 188.758 101.528 188.262 101.774C187.77 102.016 187.216 102.137 186.601 102.137ZM186.402 95.7998C185.947 95.7998 185.577 95.9593 185.295 96.2783C185.017 96.5973 184.839 97.0417 184.762 97.6113H187.927V97.4883C187.89 96.9323 187.742 96.513 187.482 96.2305C187.223 95.9434 186.863 95.7998 186.402 95.7998ZM194.12 102.137C193.067 102.137 192.213 101.806 191.557 101.146C190.905 100.48 190.579 99.596 190.579 98.4932V98.2881C190.579 97.5498 190.72 96.8913 191.003 96.3125C191.29 95.7292 191.691 95.2757 192.206 94.9521C192.721 94.6286 193.295 94.4668 193.929 94.4668C194.936 94.4668 195.713 94.7881 196.26 95.4307C196.811 96.0732 197.087 96.9824 197.087 98.1582V98.8281H192.254C192.304 99.4388 192.507 99.9219 192.862 100.277C193.222 100.633 193.674 100.811 194.216 100.811C194.977 100.811 195.597 100.503 196.075 99.8877L196.971 100.742C196.674 101.184 196.278 101.528 195.781 101.774C195.289 102.016 194.735 102.137 194.12 102.137ZM193.922 95.7998C193.466 95.7998 193.097 95.9593 192.814 96.2783C192.536 96.5973 192.359 97.0417 192.281 97.6113H195.446V97.4883C195.41 96.9323 195.262 96.513 195.002 96.2305C194.742 95.9434 194.382 95.7998 193.922 95.7998ZM198.071 98.2471C198.071 97.1077 198.336 96.194 198.864 95.5059C199.393 94.8132 200.102 94.4668 200.99 94.4668C201.774 94.4668 202.408 94.7402 202.891 95.2871V91.5H204.552V102H203.048L202.966 101.234C202.469 101.836 201.806 102.137 200.977 102.137C200.111 102.137 199.409 101.788 198.871 101.091C198.338 100.394 198.071 99.4456 198.071 98.2471ZM199.732 98.3906C199.732 99.1426 199.876 99.7305 200.163 100.154C200.455 100.574 200.867 100.783 201.4 100.783C202.079 100.783 202.576 100.48 202.891 99.874V96.7158C202.585 96.1234 202.093 95.8271 201.414 95.8271C200.876 95.8271 200.462 96.0413 200.17 96.4697C199.878 96.8936 199.732 97.5339 199.732 98.3906ZM211.538 102H209.877V94.6035H211.538V102ZM209.774 92.6826C209.774 92.4274 209.854 92.2155 210.014 92.0469C210.178 91.8783 210.41 91.7939 210.711 91.7939C211.012 91.7939 211.244 91.8783 211.408 92.0469C211.572 92.2155 211.654 92.4274 211.654 92.6826C211.654 92.9333 211.572 93.1429 211.408 93.3115C211.244 93.4756 211.012 93.5576 210.711 93.5576C210.41 93.5576 210.178 93.4756 210.014 93.3115C209.854 93.1429 209.774 92.9333 209.774 92.6826ZM215.435 92.8057V94.6035H216.74V95.834H215.435V99.9629C215.435 100.245 215.489 100.451 215.599 100.578C215.713 100.701 215.913 100.763 216.2 100.763C216.392 100.763 216.585 100.74 216.781 100.694V101.979C216.403 102.084 216.038 102.137 215.688 102.137C214.411 102.137 213.773 101.433 213.773 100.024V95.834H212.557V94.6035H213.773V92.8057H215.435ZM219.051 100.25C219.361 100.25 219.6 100.339 219.769 100.517C219.937 100.69 220.021 100.909 220.021 101.173C220.021 101.433 219.937 101.649 219.769 101.822C219.6 101.991 219.361 102.075 219.051 102.075C218.755 102.075 218.52 101.991 218.347 101.822C218.174 101.654 218.087 101.437 218.087 101.173C218.087 100.909 218.171 100.69 218.34 100.517C218.508 100.339 218.745 100.25 219.051 100.25ZM2.83691 118H1.11426V108.047H2.83691V118ZM6.34375 110.604L6.3916 111.458C6.93848 110.797 7.65625 110.467 8.54492 110.467C10.0853 110.467 10.8691 111.349 10.8965 113.112V118H9.23535V113.208C9.23535 112.739 9.13281 112.392 8.92773 112.169C8.72721 111.941 8.39681 111.827 7.93652 111.827C7.2666 111.827 6.76758 112.13 6.43945 112.736V118H4.77832V110.604H6.34375ZM13.1797 118V111.834H12.0518V110.604H13.1797V109.927C13.1797 109.106 13.4076 108.473 13.8633 108.026C14.319 107.58 14.957 107.356 15.7773 107.356C16.069 107.356 16.3789 107.397 16.707 107.479L16.666 108.778C16.4837 108.742 16.2718 108.724 16.0303 108.724C15.2373 108.724 14.8408 109.132 14.8408 109.947V110.604H16.3447V111.834H14.8408V118H13.1797ZM17.2471 114.233C17.2471 113.509 17.3906 112.857 17.6777 112.278C17.9648 111.695 18.3682 111.248 18.8877 110.938C19.4072 110.624 20.0042 110.467 20.6787 110.467C21.6768 110.467 22.4857 110.788 23.1055 111.431C23.7298 112.073 24.0671 112.925 24.1172 113.987L24.124 114.377C24.124 115.106 23.9827 115.758 23.7002 116.332C23.4222 116.906 23.0212 117.351 22.4971 117.665C21.9775 117.979 21.376 118.137 20.6924 118.137C19.6488 118.137 18.8125 117.79 18.1836 117.098C17.5592 116.4 17.2471 115.473 17.2471 114.315V114.233ZM18.9082 114.377C18.9082 115.138 19.0654 115.735 19.3799 116.168C19.6943 116.596 20.1318 116.811 20.6924 116.811C21.2529 116.811 21.6882 116.592 21.998 116.154C22.3125 115.717 22.4697 115.076 22.4697 114.233C22.4697 113.486 22.3079 112.894 21.9844 112.456C21.6654 112.019 21.2301 111.8 20.6787 111.8C20.1364 111.8 19.7057 112.016 19.3867 112.449C19.0677 112.878 18.9082 113.52 18.9082 114.377ZM29.4014 112.121C29.1826 112.085 28.957 112.066 28.7246 112.066C27.9635 112.066 27.4508 112.358 27.1865 112.941V118H25.5254V110.604H27.1113L27.1523 111.431C27.5534 110.788 28.1094 110.467 28.8203 110.467C29.0573 110.467 29.2533 110.499 29.4082 110.562L29.4014 112.121ZM32.0127 110.604L32.0605 111.376C32.5801 110.77 33.291 110.467 34.1934 110.467C35.1823 110.467 35.859 110.845 36.2236 111.602C36.7614 110.845 37.5179 110.467 38.4932 110.467C39.3089 110.467 39.915 110.692 40.3115 111.144C40.7126 111.595 40.9176 112.26 40.9268 113.14V118H39.2656V113.188C39.2656 112.718 39.1631 112.374 38.958 112.155C38.7529 111.937 38.4134 111.827 37.9395 111.827C37.5612 111.827 37.2513 111.93 37.0098 112.135C36.7728 112.335 36.6064 112.6 36.5107 112.928L36.5176 118H34.8564V113.133C34.8337 112.262 34.3893 111.827 33.5234 111.827C32.8581 111.827 32.3864 112.098 32.1084 112.641V118H30.4473V110.604H32.0127ZM47.0518 118C46.9788 117.859 46.915 117.629 46.8604 117.31C46.3317 117.861 45.6846 118.137 44.9189 118.137C44.1761 118.137 43.57 117.925 43.1006 117.501C42.6312 117.077 42.3965 116.553 42.3965 115.929C42.3965 115.14 42.6882 114.536 43.2715 114.117C43.8594 113.693 44.6979 113.481 45.7871 113.481H46.8057V112.996C46.8057 112.613 46.6986 112.308 46.4844 112.08C46.2702 111.848 45.9443 111.731 45.5068 111.731C45.1286 111.731 44.8187 111.827 44.5771 112.019C44.3356 112.205 44.2148 112.445 44.2148 112.736H42.5537C42.5537 112.331 42.6882 111.952 42.957 111.602C43.2259 111.246 43.5905 110.968 44.0508 110.768C44.5156 110.567 45.0329 110.467 45.6025 110.467C46.4684 110.467 47.1589 110.686 47.6738 111.123C48.1888 111.556 48.4531 112.167 48.4668 112.955V116.291C48.4668 116.956 48.5602 117.487 48.7471 117.884V118H47.0518ZM45.2266 116.804C45.5547 116.804 45.8623 116.724 46.1494 116.564C46.4411 116.405 46.6598 116.191 46.8057 115.922V114.527H45.9102C45.2949 114.527 44.8324 114.634 44.5225 114.849C44.2126 115.063 44.0576 115.366 44.0576 115.758C44.0576 116.077 44.1624 116.332 44.3721 116.523C44.5863 116.71 44.8711 116.804 45.2266 116.804ZM52.2881 108.806V110.604H53.5938V111.834H52.2881V115.963C52.2881 116.245 52.3428 116.451 52.4521 116.578C52.5661 116.701 52.7666 116.763 53.0537 116.763C53.2451 116.763 53.4388 116.74 53.6348 116.694V117.979C53.2565 118.084 52.8919 118.137 52.541 118.137C51.265 118.137 50.627 117.433 50.627 116.024V111.834H49.4102V110.604H50.627V108.806H52.2881ZM56.6357 118H54.9746V110.604H56.6357V118ZM54.8721 108.683C54.8721 108.427 54.9518 108.215 55.1113 108.047C55.2754 107.878 55.5078 107.794 55.8086 107.794C56.1094 107.794 56.3418 107.878 56.5059 108.047C56.6699 108.215 56.752 108.427 56.752 108.683C56.752 108.933 56.6699 109.143 56.5059 109.312C56.3418 109.476 56.1094 109.558 55.8086 109.558C55.5078 109.558 55.2754 109.476 55.1113 109.312C54.9518 109.143 54.8721 108.933 54.8721 108.683ZM58.1396 114.233C58.1396 113.509 58.2832 112.857 58.5703 112.278C58.8574 111.695 59.2607 111.248 59.7803 110.938C60.2998 110.624 60.8968 110.467 61.5713 110.467C62.5693 110.467 63.3783 110.788 63.998 111.431C64.6224 112.073 64.9596 112.925 65.0098 113.987L65.0166 114.377C65.0166 115.106 64.8753 115.758 64.5928 116.332C64.3148 116.906 63.9137 117.351 63.3896 117.665C62.8701 117.979 62.2686 118.137 61.585 118.137C60.5413 118.137 59.7051 117.79 59.0762 117.098C58.4518 116.4 58.1396 115.473 58.1396 114.315V114.233ZM59.8008 114.377C59.8008 115.138 59.958 115.735 60.2725 116.168C60.5869 116.596 61.0244 116.811 61.585 116.811C62.1455 116.811 62.5807 116.592 62.8906 116.154C63.2051 115.717 63.3623 115.076 63.3623 114.233C63.3623 113.486 63.2005 112.894 62.877 112.456C62.5579 112.019 62.1227 111.8 61.5713 111.8C61.029 111.8 60.5983 112.016 60.2793 112.449C59.9603 112.878 59.8008 113.52 59.8008 114.377ZM67.9629 110.604L68.0107 111.458C68.5576 110.797 69.2754 110.467 70.1641 110.467C71.7044 110.467 72.4883 111.349 72.5156 113.112V118H70.8545V113.208C70.8545 112.739 70.752 112.392 70.5469 112.169C70.3464 111.941 70.016 111.827 69.5557 111.827C68.8857 111.827 68.3867 112.13 68.0586 112.736V118H66.3975V110.604H67.9629ZM82.1201 118C82.0472 117.859 81.9834 117.629 81.9287 117.31C81.4001 117.861 80.7529 118.137 79.9873 118.137C79.2445 118.137 78.6383 117.925 78.1689 117.501C77.6995 117.077 77.4648 116.553 77.4648 115.929C77.4648 115.14 77.7565 114.536 78.3398 114.117C78.9277 113.693 79.7663 113.481 80.8555 113.481H81.874V112.996C81.874 112.613 81.7669 112.308 81.5527 112.08C81.3385 111.848 81.0127 111.731 80.5752 111.731C80.1969 111.731 79.887 111.827 79.6455 112.019C79.404 112.205 79.2832 112.445 79.2832 112.736H77.6221C77.6221 112.331 77.7565 111.952 78.0254 111.602C78.2943 111.246 78.6589 110.968 79.1191 110.768C79.584 110.567 80.1012 110.467 80.6709 110.467C81.5368 110.467 82.2272 110.686 82.7422 111.123C83.2572 111.556 83.5215 112.167 83.5352 112.955V116.291C83.5352 116.956 83.6286 117.487 83.8154 117.884V118H82.1201ZM80.2949 116.804C80.623 116.804 80.9307 116.724 81.2178 116.564C81.5094 116.405 81.7282 116.191 81.874 115.922V114.527H80.9785C80.3633 114.527 79.9007 114.634 79.5908 114.849C79.2809 115.063 79.126 115.366 79.126 115.758C79.126 116.077 79.2308 116.332 79.4404 116.523C79.6546 116.71 79.9395 116.804 80.2949 116.804ZM87.3564 108.806V110.604H88.6621V111.834H87.3564V115.963C87.3564 116.245 87.4111 116.451 87.5205 116.578C87.6344 116.701 87.835 116.763 88.1221 116.763C88.3135 116.763 88.5072 116.74 88.7031 116.694V117.979C88.3249 118.084 87.9603 118.137 87.6094 118.137C86.3333 118.137 85.6953 117.433 85.6953 116.024V111.834H84.4785V110.604H85.6953V108.806H87.3564ZM96.0107 115.621L97.5146 110.604H99.2852L96.3457 119.121C95.8945 120.365 95.1289 120.987 94.0488 120.987C93.8073 120.987 93.5407 120.946 93.249 120.864V119.579L93.5635 119.6C93.9827 119.6 94.2972 119.522 94.5068 119.367C94.721 119.217 94.8896 118.962 95.0127 118.602L95.252 117.966L92.6543 110.604H94.4453L96.0107 115.621ZM99.8252 114.233C99.8252 113.509 99.9688 112.857 100.256 112.278C100.543 111.695 100.946 111.248 101.466 110.938C101.985 110.624 102.582 110.467 103.257 110.467C104.255 110.467 105.064 110.788 105.684 111.431C106.308 112.073 106.645 112.925 106.695 113.987L106.702 114.377C106.702 115.106 106.561 115.758 106.278 116.332C106 116.906 105.599 117.351 105.075 117.665C104.556 117.979 103.954 118.137 103.271 118.137C102.227 118.137 101.391 117.79 100.762 117.098C100.137 116.4 99.8252 115.473 99.8252 114.315V114.233ZM101.486 114.377C101.486 115.138 101.644 115.735 101.958 116.168C102.272 116.596 102.71 116.811 103.271 116.811C103.831 116.811 104.266 116.592 104.576 116.154C104.891 115.717 105.048 115.076 105.048 114.233C105.048 113.486 104.886 112.894 104.562 112.456C104.243 112.019 103.808 111.8 103.257 111.8C102.715 111.8 102.284 112.016 101.965 112.449C101.646 112.878 101.486 113.52 101.486 114.377ZM112.588 117.275C112.1 117.85 111.408 118.137 110.51 118.137C109.708 118.137 109.099 117.902 108.685 117.433C108.274 116.963 108.069 116.284 108.069 115.396V110.604H109.73V115.375C109.73 116.314 110.12 116.783 110.899 116.783C111.706 116.783 112.251 116.494 112.533 115.915V110.604H114.194V118H112.629L112.588 117.275ZM119.759 112.121C119.54 112.085 119.314 112.066 119.082 112.066C118.321 112.066 117.808 112.358 117.544 112.941V118H115.883V110.604H117.469L117.51 111.431C117.911 110.788 118.467 110.467 119.178 110.467C119.415 110.467 119.611 110.499 119.766 110.562L119.759 112.121ZM124.735 118V111.834H123.607V110.604H124.735V110.098C124.74 109.519 124.863 109.022 125.104 108.607C125.346 108.193 125.688 107.881 126.13 107.671C126.572 107.461 127.103 107.356 127.723 107.356C128.087 107.356 128.436 107.395 128.769 107.473C129.106 107.55 129.454 107.648 129.814 107.767L129.562 109.141C128.933 108.922 128.358 108.812 127.839 108.812C127.333 108.812 126.966 108.924 126.738 109.147C126.51 109.366 126.396 109.697 126.396 110.139V110.604H127.853V111.834H126.396V118H124.735ZM130.601 118H128.939V110.604H130.601V118ZM133.984 110.604L134.032 111.458C134.579 110.797 135.297 110.467 136.186 110.467C137.726 110.467 138.51 111.349 138.537 113.112V118H136.876V113.208C136.876 112.739 136.773 112.392 136.568 112.169C136.368 111.941 136.037 111.827 135.577 111.827C134.907 111.827 134.408 112.13 134.08 112.736V118H132.419V110.604H133.984ZM139.945 114.247C139.945 113.099 140.214 112.183 140.752 111.499C141.294 110.811 142.012 110.467 142.905 110.467C143.748 110.467 144.411 110.761 144.895 111.349L144.97 110.604H146.467V117.774C146.467 118.745 146.164 119.511 145.558 120.071C144.956 120.632 144.143 120.912 143.117 120.912C142.575 120.912 142.044 120.798 141.524 120.57C141.009 120.347 140.618 120.053 140.349 119.688L141.135 118.69C141.645 119.297 142.274 119.6 143.021 119.6C143.573 119.6 144.008 119.449 144.327 119.148C144.646 118.852 144.806 118.415 144.806 117.836V117.337C144.327 117.87 143.689 118.137 142.892 118.137C142.026 118.137 141.317 117.793 140.766 117.104C140.219 116.416 139.945 115.464 139.945 114.247ZM141.6 114.391C141.6 115.133 141.75 115.719 142.051 116.147C142.356 116.571 142.778 116.783 143.315 116.783C143.985 116.783 144.482 116.496 144.806 115.922V112.668C144.491 112.107 143.999 111.827 143.329 111.827C142.782 111.827 142.356 112.044 142.051 112.477C141.75 112.91 141.6 113.548 141.6 114.391ZM151.437 118.137C150.384 118.137 149.529 117.806 148.873 117.146C148.221 116.48 147.896 115.596 147.896 114.493V114.288C147.896 113.55 148.037 112.891 148.319 112.312C148.606 111.729 149.007 111.276 149.522 110.952C150.037 110.629 150.612 110.467 151.245 110.467C152.252 110.467 153.029 110.788 153.576 111.431C154.128 112.073 154.403 112.982 154.403 114.158V114.828H149.57C149.62 115.439 149.823 115.922 150.179 116.277C150.539 116.633 150.99 116.811 151.532 116.811C152.293 116.811 152.913 116.503 153.392 115.888L154.287 116.742C153.991 117.184 153.594 117.528 153.098 117.774C152.605 118.016 152.052 118.137 151.437 118.137ZM151.238 111.8C150.783 111.8 150.413 111.959 150.131 112.278C149.853 112.597 149.675 113.042 149.598 113.611H152.763V113.488C152.726 112.932 152.578 112.513 152.318 112.23C152.059 111.943 151.699 111.8 151.238 111.8ZM159.571 112.121C159.353 112.085 159.127 112.066 158.895 112.066C158.133 112.066 157.621 112.358 157.356 112.941V118H155.695V110.604H157.281L157.322 111.431C157.723 110.788 158.279 110.467 158.99 110.467C159.227 110.467 159.423 110.499 159.578 110.562L159.571 112.121ZM166.188 108.806V110.604H167.494V111.834H166.188V115.963C166.188 116.245 166.243 116.451 166.353 116.578C166.466 116.701 166.667 116.763 166.954 116.763C167.146 116.763 167.339 116.74 167.535 116.694V117.979C167.157 118.084 166.792 118.137 166.441 118.137C165.165 118.137 164.527 117.433 164.527 116.024V111.834H163.311V110.604H164.527V108.806H166.188ZM170.536 118H168.875V110.604H170.536V118ZM168.772 108.683C168.772 108.427 168.852 108.215 169.012 108.047C169.176 107.878 169.408 107.794 169.709 107.794C170.01 107.794 170.242 107.878 170.406 108.047C170.57 108.215 170.652 108.427 170.652 108.683C170.652 108.933 170.57 109.143 170.406 109.312C170.242 109.476 170.01 109.558 169.709 109.558C169.408 109.558 169.176 109.476 169.012 109.312C168.852 109.143 168.772 108.933 168.772 108.683ZM178.828 114.377C178.828 115.521 178.568 116.435 178.049 117.118C177.529 117.797 176.832 118.137 175.957 118.137C175.146 118.137 174.496 117.87 174.009 117.337V120.844H172.348V110.604H173.879L173.947 111.355C174.435 110.763 175.098 110.467 175.937 110.467C176.839 110.467 177.545 110.804 178.056 111.479C178.571 112.148 178.828 113.08 178.828 114.274V114.377ZM177.174 114.233C177.174 113.495 177.026 112.91 176.729 112.477C176.438 112.044 176.019 111.827 175.472 111.827C174.793 111.827 174.305 112.107 174.009 112.668V115.949C174.31 116.523 174.802 116.811 175.485 116.811C176.014 116.811 176.426 116.599 176.723 116.175C177.023 115.746 177.174 115.099 177.174 114.233ZM184.386 115.99C184.386 115.694 184.263 115.468 184.017 115.313C183.775 115.159 183.372 115.022 182.807 114.903C182.242 114.785 181.77 114.634 181.392 114.452C180.562 114.051 180.147 113.47 180.147 112.709C180.147 112.071 180.416 111.538 180.954 111.109C181.492 110.681 182.175 110.467 183.005 110.467C183.889 110.467 184.602 110.686 185.145 111.123C185.691 111.561 185.965 112.128 185.965 112.825H184.304C184.304 112.506 184.185 112.242 183.948 112.032C183.711 111.818 183.397 111.711 183.005 111.711C182.64 111.711 182.342 111.795 182.109 111.964C181.882 112.132 181.768 112.358 181.768 112.641C181.768 112.896 181.875 113.094 182.089 113.235C182.303 113.377 182.736 113.52 183.388 113.666C184.039 113.807 184.55 113.978 184.919 114.179C185.293 114.375 185.568 114.612 185.746 114.89C185.928 115.168 186.02 115.505 186.02 115.901C186.02 116.567 185.744 117.107 185.192 117.521C184.641 117.932 183.919 118.137 183.025 118.137C182.419 118.137 181.879 118.027 181.405 117.809C180.931 117.59 180.562 117.289 180.298 116.906C180.034 116.523 179.901 116.111 179.901 115.669H181.515C181.537 116.061 181.686 116.364 181.959 116.578C182.232 116.788 182.595 116.893 183.046 116.893C183.483 116.893 183.816 116.811 184.044 116.646C184.272 116.478 184.386 116.259 184.386 115.99ZM189.232 115.067H187.804L187.646 108.047H189.396L189.232 115.067ZM187.599 117.214C187.599 116.954 187.683 116.74 187.852 116.571C188.02 116.398 188.25 116.312 188.542 116.312C188.834 116.312 189.064 116.398 189.232 116.571C189.401 116.74 189.485 116.954 189.485 117.214C189.485 117.465 189.403 117.674 189.239 117.843C189.075 118.011 188.843 118.096 188.542 118.096C188.241 118.096 188.009 118.011 187.845 117.843C187.681 117.674 187.599 117.465 187.599 117.214Z" fill="black"/>
</svg>
